<mxfile host="app.diagrams.net" modified="2023-08-29T23:45:42.007Z" agent="Mozilla/5.0 (Windows NT 10.0; Win64; x64) AppleWebKit/537.36 (KHTML, like Gecko) Chrome/116.0.0.0 Safari/537.36 Edg/116.0.1938.62" etag="PtXLlZgiQP4sSJlOHxJA" version="21.6.8" type="github">
  <diagram name="PÃ¡gina-1" id="H3fxZ5KPzVNEgv8aWmHO">
    <mxGraphModel dx="1379" dy="764" grid="1" gridSize="10" guides="1" tooltips="1" connect="1" arrows="1" fold="1" page="1" pageScale="1" pageWidth="1169" pageHeight="827" math="0" shadow="0">
      <root>
        <mxCell id="0" />
        <mxCell id="1" parent="0" />
        <mxCell id="LaAjLJHp3v9Z2FKLQKzg-2" style="edgeStyle=orthogonalEdgeStyle;rounded=0;orthogonalLoop=1;jettySize=auto;html=1;exitX=1;exitY=0.75;exitDx=0;exitDy=0;strokeWidth=3;strokeColor=#808080;" edge="1" parent="1" source="6SbLtYSVwNf5yXNBwJdg-1" target="6SbLtYSVwNf5yXNBwJdg-7">
          <mxGeometry relative="1" as="geometry">
            <Array as="points">
              <mxPoint x="350" y="103" />
              <mxPoint x="350" y="103" />
            </Array>
          </mxGeometry>
        </mxCell>
        <mxCell id="6SbLtYSVwNf5yXNBwJdg-1" value="GitHub" style="shape=image;verticalLabelPosition=bottom;labelBackgroundColor=default;verticalAlign=top;aspect=fixed;imageAspect=0;image=data:image/png,iVBORw0KGgoAAAANSUhEUgAAAHcAAAB3CAMAAAAO5y+4AAAAaVBMVEX///8AAABiYmL09PTi4uLt7e2EhITn5+eioqL4+PjT09Pc3NxlZWXQ0NC+vr7q6uohISGzs7M7Ozutra0yMjKbm5sbGxvGxsZycnJLS0tYWFgREREsLCxSUlJsbGyKioqTk5NCQkJ8fHzpvwoSAAAFeUlEQVRogdVb26KqIBCV1PKempdKS+v/P/LkVgthBgHx4axHdbMC5rJmYFvW/wPbiZPs4pVl6V2yJHbs/SnDpD+0VUNoNFV76JNwN04ni3KCI48yZwfS8t4ISKeZ30uj1HZyWOWccUhMbbfbV9KsA6reNcF6VCIdcdzK7HcarAM6fwutp8k6wNNmDYoNtIQUgRarr7OxSxw1Fjt8baYl5KUcxbbsLA21XfbfhmgJeSus9flhjJaQx1mW1kkN0hKSSsbs0CjrACnrCozTEiLhyXvQShCbX+QRK0vtqKU8eVRC47JfO9F+QpdIDkS70RIS4bT9jrSE9BhtzX1arWs5DBUffGpkczmSz5ackqsGaVd/hM6ZfdrAW8wF5XlHMpFs5nGvsQEfEG3GDZB93wXyk36fvn91EYz4hc8PQYtCR475SbvpiX/PJ0U+4zbLD4Lb9Dw/vLtLEgfO2Qni5NK9D/M+3OLlnwCrwdICYfnJrojXtFEZn3jrsE9xGbWNx84GqDLYQH3nP+Elykkkx90T96jkB70vv+BdFzQCRfCmyjrxDfgi2YX3Rn8ATXcnXkLbHrC7e60zvcOwxtAvcGbAIvxn0nBMYP1IHU9w3Ov8+ozo1s288LDpLKj5ODpia6/CQca9TO8hJxrQb+TFZMSUlhwsuW9tSWHatBkXErR2gsoDBSTIyKOHgs77KZo301oWUrr/ubAPS+bWAK1lwZ5SDYkLjJEmVtkSDw4HldvqkHKAfWUIhXALcHtSGAGb1uHzBvSi3FST0Qa16EdC2eAP4nSQNuBOiY3kIjNWNQC2rACJGrxW0gUgZskQOcCkcNvU1VzABy36YoEN14MxWsRfOjjnmzMrxLCufPE0wERsngHG6IcF9no7g7zgRhZw5N6dN7XAbLT7Olew9tqdl8Dh+bo+nDRAh2ngdd7dfyurhR4/DMYr0FELC8xTqYkTrxEuOLEXHDc2S9gfYPH+QGojU3IDExxXRNSbcyTYjXqkODIl6zBhd8E0vanzY6Q2S6wYfrG96B6B1Joxout21s9DxxXp7OsdZrJATkkqC2sGGAqVyL2AoYWBnUCamDBWAQ/WgxgW3CxWBFLi/vWwkDr014bQB1bR/9Wh+CHKXn2VqZGP/SqSbsuGNnqsOvYZ0L7KtqrQRW8lTH0VJBUOaPWXOsQPkecOJdZ2+S2JOrBe3IA5ycKSYMJDZ8rCyxDtV8yIz0quqkVpiITAebzfh7+HaeL6Qc/83CgWsLCIsWAxg9JQPxcuxgcZYxV5H8hIPTfuVs/W6HNRKlZOCsfl1r59dHUIHOKMsE9hcnyIDGXGYu2otZkveoD1VFXAS14Xsieny4McOjmkU1MFtLYSmS9wVCQxXSZITw4GeD4uQ7AmNgP21Ht5WDv+KEAs4Hpe8iIEd2lmsZ3tuMdca6JAaS244GEBFPQLw5h8+8X8mShqiiLjjAb4u6XuGFfaZSYhKptkFhp0hkVFMZm7uxRmAlrs1IYGXP34i4Q5y7rL92l1EHctV4NGgeiIhf1+o7ddH6Po+fbqtfSw6kmoQqVNo5G+JjZjLR8IdCK9xcq9wpW7u8LSll4r1R60mFdccC1sS7FiEPJiNjXDpYMylgTUedcbNYv+eK7S5xDxSkilpZxur1kcnl3ft92wFv8KnLeR0ob89cm0zfOi5S5fyPLKqvATpvTFNTHGm0tHAhsJAVrzvasUO3DXSYdXsYW+dvVClle5znEA/SBuAQC8uU6Rwzc+VHk1m2AOm9nEMZblvekXsVmhzVtsut7jl3QQeUnzpuXWjr3rFZK8VHHnmejX29/7k2IpMHey88zYP2DF72G5G3FWOQ+NsPStUiuvw09Kby3Oul6ZmDuI2Qf/AC+cQ4UEvyHiAAAAAElFTkSuQmCC;" parent="1" vertex="1">
          <mxGeometry x="80" y="40" width="84" height="84" as="geometry" />
        </mxCell>
        <mxCell id="LaAjLJHp3v9Z2FKLQKzg-3" style="edgeStyle=orthogonalEdgeStyle;rounded=0;orthogonalLoop=1;jettySize=auto;html=1;exitX=1;exitY=0.5;exitDx=0;exitDy=0;strokeWidth=3;strokeColor=#808080;" edge="1" parent="1" source="6SbLtYSVwNf5yXNBwJdg-7" target="6SbLtYSVwNf5yXNBwJdg-13">
          <mxGeometry relative="1" as="geometry">
            <Array as="points">
              <mxPoint x="467" y="108" />
              <mxPoint x="467" y="100" />
            </Array>
          </mxGeometry>
        </mxCell>
        <mxCell id="6SbLtYSVwNf5yXNBwJdg-7" value="Jenkins" style="shape=image;verticalLabelPosition=bottom;labelBackgroundColor=default;verticalAlign=top;aspect=fixed;imageAspect=0;image=data:image/png,iVBORw0KGgoAAAANSUhEUgAAALIAAAD0CAIAAACw6etOAAAAAXNSR0IArs4c6QAAIABJREFUeAHsfYdXFEkX7/tPmJxzDuQcJEsGSZKjIIKKSBBFUUQJooCIIoJkSaIkyTlKEpTkumYQQdfVdd/paWiaNAy4su73nqePp6anh66u++tbN9//8/f//7d2Bb5///7169elpaX5+fk3kn/v3r2bn5tbWFhYWlr6/Pnz169fv3//vvZH/2uf/s//2gPt5Hm+fv06Pz8/OzMz9HiorbW1tqamsqKypLgkNyfnxvXrSQmJF2LPnz8Xe+nixaSEhGspKdfT029l3rybm1teVlZfV9fZ0TE8NDQ9NfXmzZs/Pv/xv4SV/+dg8fnz5+fPn/d099RUV+fn5SUnJoUdD3VxctbX0RXzBXQyBYdCo+UQUg4MAkklkpTE8qaGRq7OB48Fh1yIPX87K6umumagv//Fb799/vz5vw6R/ydg8f2v7x/mP4w/GW9qbLyTnR0edtLSzFzI4xMwWCnk39FXOBRaXiiyt7WLioi4fetWbU3N0NDQ/NzcX3/9tRP+9atc+z8Oi8XFxfEn4zUPq69eSfH38dVUVSPh8Dui9y4uxqMxCiKxi7PzlaTkhkePZmdmvnz58qsQXLZ5/G/C4s8vX357/rytpfXmjRv+Pr6KIvG2W8MuyL/tT/BojJa6xonjoUUFhY8HBxc+LPxXNpf/NVh8/PhxaGiouLAo4uTJfTo6ZDxhW+JBFxAwGDaNqiTk62moWBjp2VsYO1mZOlvvd7YxO2hr5mhlam2ib6KnqaOmpCIWcBk0AhoD/Vb6gMNgOtk73LieMToy8vnzZ9ne2H/zqv8dWCwsLAwMDNzKvOnifJBNZ0inE/xbAgYjz+NYGOoGejieDw+6mRRzP/dqd03eeEfFVO+Dmb7q2f6a3wZrp3oeDDQUNZbdKstOvp1yLi4qJMDD0Wa/gbaqIpdOw6O3EVTRcggmlebt4Vl2r/T333//9u3bv0n27e79vwCL+fn5vt7ejOvXHewOMKg0OMmlj5kUsoGWmp+rfWpcZFf13ffjLZ+fd8t+zE20PG4qKclKjIsK9neztzbR11RWYNOo0jcsVSWlmNNnOtrbFxYWtqPOv/b9fxsWi4uLA/396ddSbS2t6GSKdBDAv6USCPs0VMKDvKsL0l+OPJIdCltd+W68uf9RYWHm5djwIF8XOxNdTQ6dhkUi4TeFxkQszsrc4m5O7qtXr35NaeO/Cos//vhj/MmTO7dvO9jZbQQECYcX8ngcBhO/YfsnYbGaSvJHvA/ev3vt9WjDVmT+kfNvxhoby27FhgfZmRmKuOyt9hcVRaXEy5enpqZ+wQ3lvweLb9++zc7OlpWW+vv6clls6BVEyyHwaAyfzTHU2+fj4Xnh3LmggAARjw9dgEejlUUCn4O2BRmXfhus/RHCy/Lbj9MdA4+KUs6Hux2wUJUXkrA4aCbQgMdiR4aHDw8N//nnn//ahrHZjf9LsPj+/fvr16/r6+rDw8IUxWIMYplFYxBIJpWmra7hbO9wNjq6/F7JQG9vb1fnlcQEDRVVkAY8JsPJev/NpDOTPVWfZrtkoeuaa2a7Ps10fpppX5puA46pVsnRsjTZsjTZvCg5liabgY9T4NG6NN0GXD/TMdFRkX019pC7g66aMo1IhDABDmgkcoC/f2dHx+dPv5CG8p+BxeLiYm9PT3zcRR1NLWhrwKFQIj7fysz8xLFjObezujvax0dH+nu6i/LzoiMi9HV0iVgcEYPVUVU6G3Z4sLF4aaZzDbG3EjABEHR8mpaAYEpC+GeNHyceLYzXLTyp+TBW/WH04YfRB/MjVfPD9+eHK1ePkfvzI1UfRqs+jD5YGKteGK/9OPFo8Wnj0mTzbN/9sqyEo34u6opiAmaNZkvAYF2cnJsaGz99+rTZq/svnPsPwOLbt2/TU9N3c3LsrK0pK28bBoHkMlmWZmYXzp1tqKsdGx6aGBsdHXrcUFd3+eJFPW1tUB3gMugHbcxKbia8GtlOjFiGQtvSVMsiAIL6hSe1C2MPP2ykPRwHMo5H7n8YfbgwXvtbX8Xt5GhrYz06iQRnGzgU2tnBobGh4RdBxq8Oi7m5uabGphPHQ+FSAoNCNdqnH3nyZM2DKhAQw4MDLY2NubezD/n4CjhctByCgMFoKSucPn5o4FHholQm8Wm2c2m6bfFZEwCFsWoJDmAMQEbCy3zZ+6HK+vwrge52Qg4TrqpgUSgne/uG+keflpb+Bf6w9pa/Liy+fPnyZGwsPTXN2MAQ8mlRCERtdY3gw4dLi4uGBwcmxkZHHg+2NTcV5uVFngw30NOnEIG3kEOjOVqZFmRcejlcv+WuMdv1abp9cbL548SjD2MP50fWbgcyk3l1B9nJT4brsi6c9FMV87FIFMQ2sEiUo92BR3X1S/82Mn5RWMzNzdVUV/t5+3AYTHDVsEiUkljex8MjJytroLcH3DLaW1pKCgvjYi+4HXRVVVQG3WDyPM7Jw169dfmL0x2bYwIExLOmhSe1P5s3SAHNTEfBlTNBqmLBOmQ42Nk1PGr4d23kvyIsXr18eTsrS19XF1ovIhanr6ObEB/f1d42MTY6MTba39NdUVaWEH/5SGCQnY2dvFCMR2MwCKSySHDx1NFn3fc3B8Tzrk8z7YuT/zIgIKxMt+cnRR9WFfHX7CZIlKvzwa7Ozn9Ra/21YPH9+/eZ6enEywkqiooQa6WRyDYWlneysoYG+ifGRseGh9qam7Myb544fsLX29fF6aCyghIOhcYikRqK8lcvhM/0V2+KCUCGmGz5OF73L3IICBDQYLotPzEqUFnIhfRttByCiMUdCTw8Ojr6b4Vr/FqwmJ2ZOXv6jJDLgzDBZbK83NzL790DRcvH/X0P79+/fDH+cMBhHy8fL3dPAz19KpGEQ6H01JVvJse8GNpcmACYxNPGD6MPIXr8OoOp1rzzJ3yE7DXuPQaFevrUqdmZmX/FOv4LweLVy1fxcXFivgDEBAaBVBCKThw92lBbC24cfd3dBXl5keERfj5+Pl4+Pl4+ttY2fDaHgMEY62rkX7/4erRxEz4x27U01brwizGJdaAcrrsV4mXPIK/RWoVcXnJS0pvXr9dqCXvx6VeBxfzc3PW0dBVFJRATkgAW9YvnYzvbWkFM9HR23L516/jR4yAgfLx8XA+6qimrUAgEMwOd0uzkzf2fACZaFsaq15HhF/zYVHTF2dKIhF0TR6iuopqXe/fjx497gQXYPX4JWHz79q2yokJfVxfiE7qaWulXr4Iax8TYaGdbW0b69ZAjIRAmvDy8jA2MGBSqgZZaWXby/LO2LfhE838CE4DBdORBaWacsY76Or+8jaVVa2vrHrvTfglYTE1N+fv6ElZeFGV5heSEBAgTPZ0d11PTjhw+AmHCx8vHztqWz+EqCfmZiWdej22+dyxO/gcw8WGkauFJ7cenDUtTLXPjTTcSTqvKCzGI1dBzIhYXFRHx2/PnsJf5pw//fVh8/vw5PS1NQSQCWQWfzYk5daqrvR3cOwb7+u5k3T4WchSOCWdHJxUFJR6TeTYscKrnwWZ8onNxshkwUu3ExLT3F38Yfbj4tOHTzKp95bfB2rNhgTzmGvFTWV4hLzd3L21c/z4shoaGnOwdQPWMhMMH+Po2PaoHMTHy+PG9ouLjR4+5HnR1c3HzcHV3c3E7YGOnrqJKIZDcDlj21uZvxMSn2c7FZ007UzoAE+eeWjnnhys/jD5YfNb0aXa9926ouSTQw3Gdr9XZwaGnp2fP9NV/GRbfv3+/eSNTQbjMKvZp6+Tn5IwND/V0dtRUVd1IT/f28NLV0tFUU9fR1NLT1tHR1BJwuHg0Rsxl37l2/sNGkWK2S1ZMjNz/MPYQ8IeN132cePRxvB7wjo4+2COeMXL/49MGCBMLk+3TvQ+7a/I6HuT0Pyq8nXLOQFMNbuOiEIiX4+PfvXv30/cPyQ3+ZVi8f/8+5MgR0FFOxhMCfH2zb926npoaGRbmaHdAQSiCfOjgFgP+j0WhgrycR1tLN7IKQBfdXu8A/Jkfx+uXplogwnx+3v1ppmPPbBsLT6qXpgEx+cOztt66gpzUC1Ehfg6WJtam+u72loGeTnrqyvi1+W2WZuYd7e3/+7D4/v17U2OjmYkJSGwmlWZqaGS0bx+TSoOb/OCAAMcELDYt/tTCVPs6WHya6VgYr5Pu9AJFvKXJZhAQn2a7X482DDffa6m4/agks6Uia7gh/1V/2c/mGR8nHn2a7VyYam8ovelmb7luy9j4yGg5BINKvZmZuTe+kn+NWywuLvb19R0LOQo5wzZdCyIWx2YwFMViHU1NU0ND0GmORSLPhx95NbwmNPfTbOfHpw3SDdsfRh8A9Fhxob0Za2yvyrkWF+Hnam+qp6WjqrR/n3aQp2POlVNjDdnvH1f8PHAsPmv8PNvV8TDXxc6chNsknm/T1Qj0P/R0YmIPGMa/A4uXv78syMs/YGNLJZE3fX4CBivi8U0MDL3d3aNOnkxOSLh7587D+5U+Hh5ESVCkq515zxp5s2txskm6ZACIeE8bP0liL+aftQ42FGdcPm1tok8lrE8xkuexL4T5PWm487NgMXJ/8VnT3ERrVIgfeHccCkXG4Ug4LA7mZ9+4MmpKypUVFXsgeP4LsPj999+TE5OUFVadYfDnp5MpuppaHi4uF8/HPqisAN1joGIyPjoSd+4c6DFRUxBV5KRAm8jSdNuHJ9JMmR9GqgBVUCL2vx5trMhJ8XKy4dC2TCpRFvIKU0/PDf0shrH4tHGivdzd3lLAYpjpaXg7mB/zdjjqbe/rZGFjrKMq5pM3YyE4FPrCudg9EDz3Ghbv3r27eiVFSV4eDgVwTMTi1JSUAv3983Lu9Pd0g1B4MjI80NvT2tRY+/BhRWnpmVOnlOUV0HIIKpGYfTUWhAWwfUzUSxcpPk7Ug+aB16MN+dfjDbTUsCsRwhtnIvFhYtNij75/XP6TGMbCeN1IY965UJ8LYb4tJSkvuovBG73uv9f/4MbthJM+jubyXPY6iydaDmFrZd3V2fmz95E9hcWff/5ZXFSko6m5kRJ8NsfRzi792rWezo6JsdHx0ZGBvt7mhoaKsrJbNzLjYi+EhZ4I8A9wcnAS8QBfGgaBvBYX+XEKMAQBliupiuWH0QdLU0DG2OuRhrz0i3BMYBBIFoWsoyJvbaTjbGnobmfqamN8wFTP2dLwflbcT8IE8GdHql70lIw33YEAse5eI3VZKWeOWBtpMylr9lkOk1WQX/Cz95E9hcXo6Ki7iytubbomBoFUkpePCAtrqKsdHx0BANHbU1ddffvmrXMxZ48cDvL19oVMnC7OLvIrRo74U0ffPmmSRfv4OA6wirmnrYU3LutrqkJqDptGsTTUOnXEvTg9pq8qY6ot71XfvRfdRcN1Wb33M2Y6CtaRao8/vhssaypMDvY8wGfSoRcJg0Bejr/0sxMV9w4WX758SU5M5LM50BOi5RBYJEpdWSX+woXuDsDaPTw40FBXdyszMzI8wt/XH0IDNHB3cVMUL29Al6KPvnvStAQYNKXZoD6MVi1NNn9+3tX+4I7tfgMQExgEUk2eHxHo2nbv2puBn66O/giehmoBnzsT5nMP8PefGB//qfvI3sFibHTsoKPTOkxoq2tcSUjo6+4aHx3p7eosKSw8E316U0CAyPBwdVcSA7IFBoFMuxj5cbL143it9EVfeFKzNN32aqTh9PFDLCqQp4pBINTE/NTYkOm2fOm//UW+bSlOcbU2hoRQE0Oj5qam/xFYZN28qSgSw2GhoqB4JTFxoLd3Ymy0q73t5o3MYyHHIMaw6QDaRMh4/O2UcxI7tzRWMT9c+XG87tNMR2XuVQMtNfDuigJOcvThZy13fxGqbzuNuaGKssxYIy0VkNXtgXixR9zi06dPoceOw+VqJpUaGRYGRtn093RnZmQEBwVvCgX4SUd7B6EkrZTPYhRcj1vYjlUAsJion59ojjjiA1qNRGzmhTDf8cacbYnxS13wpr805qgnuJXsgXixR7CYnJx0d3GFswobC4vKstKJsdHH/X15OTmhx1bDruA4WDe2tbbhSdKR1RREpbfiZXGTfpyoH28vcztgiZZDkHG4UF+n4bqsX4rkMk6mNOOcvvpy9NrhQwE/1dy5R7Boamzcb7zs+0DLISgEQkz0qcG+3pHHg2X37kWcjFhH/q0+WpiZsySVbgy11R/mJEi3VYDLvfCkuq4w1UxfGy2HMNJSeZAdPzf0E5PGZKTxLi4ba8j2djADzaBW5j/XbbZHsMi9cwce46+honIn69bE2Gh9bc3ZMzFwFXQrQIDnTY2MwWoWjpbGrfdSZVrckarSmxf1NVXoJGLcSb/p9v+GmLnx0eaGKi6E+bKpgBlDU02t+uHDnyd17gUsvv/1Pe78eXhxEjsr6/vl5cODg9dT0wL8A6RDAf6tgd4+CgGoBXDU23H0kaw+i86KDC8Hy4PWxo2FyRuX+z905m5KlJYSEJvCZjCLCov+27BYWFgIPhwEGZHQcgh/H5+WxobG+vqzZ2LgVN92rKOpRcBgsUjUpYhDL3tLZKTo6/6yiqz46pzLW5kUt/077x6X/1SH6sYJzHYU/N6zbBGHvq3NvWymp46WQ+BQ6MwbN35e3O9ecIvJZ8/cXFwgeRODQEaFn+zv6c7NvhNyZHvtA8KKt6e3mrIqFoli06jZiRHQYskyAGpOACUJdilVDNdlPW3J3fXPd/HD2tzLj/KT1kG//+ENJ0tDcCXj4y5++PDhJzGMvYDF8NCQ4wF7CBZkAiHxUnx3R8fl+EuySxU+Xj4ebh6gLWufuvL92xd3sda7/cn9zPiw8pvnf57nbOPEcpKjzh337qpIg3/1vLPQ/6AVuJJhx0Of/7Rw8L2ARX9//wEbWwgWQi4vIy31QWVlVEQkxAlkGTg7Oov5QrQcwsXauKNMNnlzt+wBIAZQq+TBwpOahfG6kwFu0UfcnzbvAcOQ3HS8tijjwgEz/ZvxYa/7SyFkzA1VhPo64lBA7QMvD4+R4ZH/Krf49u3b/YpKfZ3l1CC0HEJRJLqZcb0oPx+eIiYLLOxs7ECXynFfx58YIyNBEhDHNV4PxPbNtH+a7Tp11M9cX7Pq9sWdRmB0V6bX5l5+JusGdH9hrGbxGRBQWFecYbpPy/+g1cDDTAgW88OVp4LcQCu4tYVlZ0fHfxIWX79+HRwc9PP2oUqqkYAMA4RF9q2soEAgvVj2w9LMHCzPeyHMd9fCI3yJtxiv0gYK87mZdEZTWf7iSb/ZzsItfrW51HL+hI+Rlkph6pn3MkT0AO6bqdbPkopvT9rLXe3MFfmc3OTItzBnXmyoN5iqaqi3r/FRw38PFn/++WdPd7eftw9cNQW5Reb19PTUVCjDWEZkmBga08gUAhojCZD5WXFTC2PVnwDarCnn23o/28pkn7WRTkNB0o5gERvqw6SQY0O9n2+HJyAoROLpBbE4/6w1LNCTiMWGeNmP1N+Gbnop8hCXTkXLIbTUNWqqa/5jsPjjjz/aWlvdXFxAMwMkWICwuH7tWkpSsoxogC7bp6NHxhO4dGpO0s7UEGhNZRksPgWCbyE+AQ5eDj8K8XXh0KgJUYG/dRXJ8nfAaxKiAnkMmquNcWf5NsLQwnjtp+k1seyZiacVBVx1eUH+1WjI+58Sc0TEASoEKQhFFeXl/yVYfPr0qaG+3vGA/abNOxSEorSUlCuJSRC9ZRzoaGoTsTgNeUFpxlnZCbOzK0fuLwKv7BpWAX68czVWVV5oZahdk3Pp3aCswXxZl0+qivliLuvmpbBXffekTGbxacM6OPbW5jqYG2KRqEA3m8HqZQkjI+64kgCIWaEQSUkJifNzcz8DGf+8JvLx48cHVVXWFpZQHTQ4q0DLIYRcXuqVKynJV2REA3SZtsSWZaajWpdzScr6/tBXkpjsTWHxrLsqwMORSSGHeNkPVmfK6Fh5lJ9koQ8EKbrbma7TNtfNE0gRWIHjJ0l1r/ejtdHBnjQiQcxhZsafAG0Y2Ynh6vLLJUAM9Pbdzcn5GRG//zAsFhcXy8vK9hsZw33o62DBpFKvJCZeu5IC0VvGgbaGJh6NcTLWaf2ZNmwgPmMtM4eolX89TlNJzKVTY0N9Jppkcs0/bc71dbLAIlFcOvXauZCNhksIHB/H64DKwNNtS5OtH582AuXeRquK02P0VIGwI0gnL7gWra2yGraio6F5OyvrH0fGPwmLz58/P3zwYL+xCXZtsoMiGs1HoTErfeGIWFxC/MXrqWl+Pn5eHl5uB12dHJwcDtg7HnBwdnR2c3Hz8vDaFCig5dvJSLt1h3IftPSyDD6MVH0cr1ucbJZUZ+4AyvkCR/vSVOtk570jnvZkHE5JwE0CAnm2N2O8f1x+KfIQjwFkHtib7WsuurIlmwHK/z4ESgSPPADzpF/13avLS7AyBHy/LAo5Kfrw867Cshux+hrL7nXwfdPW0Lybm/th/p+0eP5jsPjzzz9bmpsP2NjCs0YxcghVDOYyg+ZBJOJXAvAxCOT5s2fTU1MPOjobGxhqqWsoySuKBUJ5oUhFQUlbQ8vUyMTOxs7dxc3H0xuOD31dQOS01FKpvxMvC4F/6Bqg7ETNx4l64BivB2osSWp3FqSe1lEBgklVxfwbcaGy6KstxSm2JroYBJJOIp4P9Zls3SQq7E1/6XhTTkdZal1eQtXtuNKMc/lXo9NijwZ72inyl8vd25noNhUlP8i+aKKzHGYGsWFjA8PysrLFxcV/Ss74Z2Dx7du3vt5edxdXuIyJlUNoYjDXmPRnYsEZGpUGYyFuzs4+np5ivgCOIeghiVgcj83R09Kxtz3g6e4JIcNE4lXXVxRW3Tj3QySXavqcG6qQYrN61pIb4GoNtqOyNNB6lJ+47Uxe9987e8yLJYnr11YW56Wc2ih7Pq65lRAV6GRpaKilrCYvELDoFDxuXSaL2T6N2ruXa3Mv75d4y6DlAgc2llb1dXX/VIbqPwCL79+/j46OBvofosEyBzFyCA0M5jqTMS0WzCmI4uk0DgwWRCxuU0DAHxWHxoj4AnPT/e6ubiAyrMwt2QymAotecCVqW2Ls+oKR+tvlmbFFaWceZF9sLk7pq8p40pD9rDn3WUvuUO2tqtsX3WxNKHigPSKPQctNjpTlRnV3E8z3aQDRxXKIg1ZGLSUp66xbzcVXrI2AzWLTA49GayqJblwEmFN1ziVTXcCJuu7AIlEuTs4d7e3/SBfFfwAWU1NTJ0NPrGsPpohGpzDoUxJMvJQXnqZSmDBYrHskKR+ZNLqJobG7q7uPl4+jvaOQxyei0VdjjsANf7IQRvZrMuNPqIr5LCpFU1FkbaTt42hx8pDz6WCP08EewR4HtJVX6/vzGLQc2WDxe09x5GFXOgmIFKES8FGH3dYZ75+13D3m40DbkA1LwmIVBRwnC4Oc5MiZdiBv5UH2RWOd5W4YeDkEDoYPAgbr7+M7MDDw9evXH9xNfhQWL1++vHAuFl5JE1BBUegLdOoTEX9OQTSnIGric63xeEjkhEAAVPln0PU1VQ+YG7kdsPBwsLK3MNZSVqCutAEAr2QzmOamZp7unp7uniqKyhgkKvzQwadN24t7skMBfuX5Ez5MyppCiNCE1w3266nX5l6G/1bKuOr2RVNddTDoRFnAzbx44kX3qllsbriyOueSt4O5spDLopKZZJKIwzTWVj3kYn39wvG+Bzeg16Dy1gUjLRUgxUYOoY3BKKJXZXlJNCTxWEjI+Pj4D1bz/CFYLH78eON6hsraJGMOEhVBpQwJlzHxTCQIp1JYG1gFlUgw1tWIDQ96mJ/2pL381WjDu/Hmic7KoszLoQEemsoK8HaS8gKRg529j5fPPh1dEg7vbGnYVnpNCg1+5KuCa9H71BWlZ44DVaSF3JSYI1NteTLe60V30cVwfyFruSiWhYFm5a0Lr/tXDVzvH1f0VF6/cTE05qhndLB78umg2rsJG03m5ZnnDTSUgVZLCGQ4hRROIQklDlUIskwqLe78hVcvX/4Iw9g9LL5+/VpXU2tqZARNCCjNgUQFkck9Ah7IJ+YURIVslu5KCT3wSqCou5B/2NOptihj02Ka7ydasq/G6qgqQYouEYc33Gfg6e4JhvhqKApLf5rUOd2Wn3ouxMpQW8RhknE4eFAZmAbHopD366lfOxcio+kCws1gdeYhF2sqAZBLcEiUm41Jc/GVd4M7y2m7l3FunyT+m4RAXqRRHnGZwWQiXG5DyyHUlJTzcu/+iGKye1iMjY56e3iC1SZAelMQSE8isZXPfS/ZO+YURK/lhaeoFNraBn+ayvIpsSc3r5C3YuZ7M9aUcj5cUbBa5VlJXsHJwdHhgIOQy6fg8ennj73d4YJC5Nl28KrvXnNxSvLpoGM+Dt4O5o4WBtZGOrYmugetjPycLc8c9azPS9yoTWz7Z+eHK6tux5nt0wADJsg4XJC7bV9VhhTFZ+PfhAxcFATyEp0yKGA/4DJ8SATG2kW2tbJuaW7etZCxS1i8efPm7JkYLpMFsQqcHMIaj6/hcd6tYGJOQfRYyHchrikqwmXQE2JCXzyuA02Hb0YbHjcWPSq5UVd0vas6d7b/4ceV0kfTfQ+DvJ2hzm9cJsvG0trZwUkkqf58KshtqlVWBr5xcWU/86a/9Glzbl9VxmD1zZn2fNm9IZve4k1/aeq5ENCpARqpoo+4jT5adZBu+iv4ycIVwwkdibwsgcWggF3KZjgQ8OQVy5Ckyw425MiRp0+f7k7I2A0sPn36lHPnjobqGqOKOgaTy2a+lBdC28ecgqiMwzaA7SAkLC7Qw/FxUwmIiecDNXeunvN2stJRUdBQEh0wMzgXdqi+OP3VcB1YnyQ37YK6wrKhl0ammBgZm5nsZ9MB/6GPo0VfVQZ8vf4r4/HGnDB/Z6g8gZjDTDwVOCkzxPOuRmspA2vCRqKSV2AxKGBnMmn7sFi4YsJlspKTkt69fbsLIWPHsPjrr79aW1qsLSyhjR+DQhboAAAgAElEQVTo9oNEXaBTn4oAEwX8yGAylGCdSI101KsL0sA+cq9GHl2Pj1KTB4LwoAOPRpvt08hKiJruKluaah5tKfFwsAKlPwIGK+YLBRweHg1UxbYz1WsquvJfgcK6ebaUpEiMH8slszQVRbcuhW2ULtf9CvyYmxyloQgsmjwancagDgrY4NHDZ5+jkcVri0ToamqVltzbRf+zHcNiamoqKDAQHkVBQiD9SaRumJgJIuOdgjCWRoV0EAwCeTYs8PeVxg61RddtTPWVhVwxh0Vc2+lPVcy/GR/2oqfkw1jNhfAAMM0cgg44MNBQfrCnUb6bB19tSrltT84NV1bcumCurwlpW6a6avcyzq6L897070AeVE0M5haTBsFiUMBu4DEDNggZBx2dende53VnsPj06dO1q1fFgtVXHCOH2I/DPeCy4SLFnILonYLouZh/lEwirmx4DDI5+2rskiTCZWmm81bSmeO+jhlxocGeBziScCM44S30NR/eiX83WJ5/7bS28vqKSjgkysZYRxbD86Yr+yucfDtQlp0YoaMiDzJdLBLpYK5fl5cAhdtsNUkwgAMthzDEYnNZdDgsBgXsEjbdFo+D1hxIu8UTYs+ee/3q1Y62kp3BorOj09oCyPGFDkU05gaL8dtakeK9gug3sWBUyDlMIhJWYLFPQ7W6MB2UKj48a3tUlN57H7DSnD3mxSSTyDjcPjVFOxM9VRGfgMHgUOioILdnzbkdZal2pnpgUQocCk0h4BV4bDsTvZykCFncVFst7q9w/rfuoqTow4r85TowBAzG19miveyadKn2+oXj4E+s8Lhi9npYDAjYqQyqFgaDhdFIR1OzsqJiRy2udgCL9+/eRUdGMShAICF40JDISCpldMWaCUkVL+UFT4TcQQH7KJlIWYGFu71lX30BCIuPUx3zY3Xzw/cnmnO9HMwwCKSprlpR2pnHNbduXAzVVVXAIJBWRtoNBUnPOwuTTwe52Zp4O5gHuFqf8HdKjT3aWZ62O/3wV0ADfA4TTTlRQW5gbCZaDkEjEoLcbdvLpBXoiY84xKEBJHAi4Cs5jHXcYlDA7uSzoqgkPszGhUWijgQefvb0qewMQ1ZYfPv2ray0VE9r1Z2DkUPY4vENPA6EBnDwWl74VMR7LBGFwigkSJ8O8HAcgcoxz3Z+HK+bH65sKU6xNtLBoVCxoT6zHUBQ9au+exfCfHkMKp9Jv5MUMTdU8arv3svekr1M3YFT7mePe6syAlysQXcJYL3G4/2cLVtLUiBrN3wC7x6Xh/k7g02XvYiEGi5zIywGBeyHXMZBAh6+lQi5vKxbt2Q3cMkKi6nJST8fX3gcngCFTmcyXqzdPt4qCKfEvCEhB5zuKSoJMsAdtDXvrs0DucWn6baFJzXzw5V1dxPM9mnwmfTc5CgoPqWjLNXBXB+PQiefDtp0deAr9T8wrs9LdDDXh/oOkbDYABfr3vvXoQWBnnG6vcDHyQJk1UFkYhNvc1gMCthXGVR1DBri62g5hIPdge7ubhnNGDLBAmj5kZoG1fEHrCUIZACZ1CdcNXKDYuasmD+ygolBAfssjSxY4Wb792k33MsEYbE02QI2+3h455KprpqhpsqD7NXkwXeD5QlRgQIWPfl0kPSNFlqvX2cgSUSrXthJv933jyuK02OMtFRA6ydaDkEnETPijm989p7K6w5m+qCDPpxC6uKzNuUWgwJ2K495mESgrezgYEhwfNzFt7KZMWSCRU93t52VNdw7oIXBFnNYb2FWivcKohdiwRgME4MC9kUaRX5Fkwbq7t5ZrrsL1byqkQSVmOtr1t1NgJO2qyLd28E86/LJHRmG4X/h3xmD7SCACL+WhSe1slRlAef5uu9ebKgPhwZUfAOPhKgAeJoheBkUmkVCIONolIEVo8Wm4LjLoptgsXDZU19Xt/rhQ1ks4tvDYnFxMfbsWRZttTQkDYmMoVEn1hqvXskLxoVcUKSAZpnGoGqs2CRYVMrdtLhlkfNpA7hk3ZXX7c30LQ206vPWhDnNDVU8yL64F4mmUiO1dootsKrfMkecav2wfQuLVXMIZNUGizmlxR7dyC3uJEWoKwBh3yIU6hrMlgUtOHzQw2efopJ4K9wa8POhUOFhYbL0t9oeFh3t7Vbmy/sZyL6s8fhHayXNN/LCZytiJnxmlRyGJX7ZlodDoZPPhc1NANV0P47Xgys+21l4yMXKGjBCrM/Wev+4fF0I006JtPfXg+0gluWnmU5ZKr5Bk6y8dcFQEkiBlkNs5SIGk5HQcgg9LCabtcaWBV92aHyfw3Ak4CEbgSQXTb3q/v1tC2NsA4vPnz7Fx8XBeztwkahrDDpc0nyvIFonUkDT6uazfEkEwkpDNk9H6/5HhZ9nu0A1ZH64cm6o8vwJH48D+3eaxAet5i80gOWYgB2aZWh4s8wt5oYq02KPKvCWo3ldN0vJf/+4IjzgICiZ2uJxpRuMFtCywweJdIryyj4O1ks5cyp622iMbWAxsLYGAVoO4UoktAu4cKX0lbxwXGKlgM8GGp+lkSEdWshm3bka++FZG1AUcYV71969fCnyUEtJCnTmvzh4/7hiqr3w9XDtShejBlmqAEJPOtmaJ4kcBnQHDAJxKshtY4D4bGehn/OyLdGXRKjbQjuFVh4cNHCZbsQ1DENfV6+utlZ61XBpsPjy5cuV5GSwswsoB7GQqGtM+u8wpfSdgmhKxBsSLGuk6+Y0KGBnA549DCRJHfZ0Gm0r+/j0ESSOve6/1156DZ59Cy3Wf2jwpOFOdlJkR1X2p+m2HbVxn+0oaClOuRR5CHSAoeUQXDo16/LJdxuaE/Q9uOFoYQDu42EUUsfWasg6KiTQKYowhkHAYOPOn5fuWZUGi7ExoBwzXAGxJxCa+WtYxUbtY92cHnGZjoTVQE5lkaAw8/L8k/oPo6sli94N7nVlqn8ccAXXou3N9PPTYj+M1UCIl3KXuaGKZy136/MSEk8F2hjrMCTRv0QMRlNRFHnYtff+9Y2/rcm5tF8S8y2LGgKnQg2X6UTA41e2crQcYr+xcXNTkxQbxpaw+Pr16/X0dHnhqleMjkQm0mnPxasRFW9hBk34PODjfgH7JIUEhX1jEMjQAI/xtpId8diNa/SrnbkY7s9j0GJP+D7v2qYAxrvB8icNd6pux5077m2krUqRiOQYBFLIYrjaGN+9ErVVJXLId7rOpQ5f7a3GF2hkEawhHhlPSLqcMD8/v5U5fEtYTE1Oebm7w4MqLPH4epgCIkXSXDe5AjbdFIeFIr/VFcU5V8++7Jc16ftXQ8Cm8zl7zItOIh7YOgpkbqhitqOguzK9OD0mPOCglpIItGGj5RBMMslUV/3iSf+Bh5lb1fN7M1B2JsQDZCr7cdh82eRNiBBVHMYBPA4epGNraSWlXc2WsCjIy1dXWc5HAGxkCOQFGhXMBQLlTemSJjShQQG7hw8wDDYs+PuAuWFd/pW3MpcD2JQSv9TJiyf92TQKg0yKPOzaWZ423Zb/vLNwuj1/svXuWEN2e2lqyfWzlyIOuduZynNZUFg5m0ox0VELD3Cpz0vYNNjizUAZaL0Yqr3lYm0MimjeJEKtbPImRIUBAfsMlQy3YdDJlJuZmX/88cemDGNzWCwtLkWeDCfjV8MwDbFAUAWkgLxXEE1LlTShCYGDYjbdHIeDLG4EDMbfxaa9NE16eMHbgbKRuqxH+YmPa2+/BfoM7nVjY9mRl381WhuMpaNSXKyNY0N9LkUcunDCN+aoZ5i/s6O5gZDNhNAAJMjQqWb7NE4dca/PS9w0jf33nuKOstTWkquzkm43kLELj0CcopK7ZZY3IUKUcRiWOBzEs9FyiOCgoMnJyR3Aor9vTW08rBwigkqZgDnQIdc5dFfpgz4BO5JK4sIsbjQi0c/Zqj4vcdO3ZH64cro9v+Lm+eO+jiY6apejj053l//KPdMHHmZ6HtgPRVtBmhd8gEejeQyarqq8vZn+uWPezcVXNg0PeNlb0l2ZfiMu9NBBq8yLJ2Y7Ct4CO4gnWDKLj0KlbGff3JQWfQL2cTKRDgsQ19XUqq2p2VTw3IRbfP/+/dba3h8CFPoOiwnFXwGsQsyH3KSbTmLjyTIOEJ1MgjlvCBiMvdm+7MTw/oeZ8AV6O1j2uOZmSkzwPnVFsHNwiJ/rREfFx4lVtVb293hvrnw3WJ6dGKGrqkDB46gEPI1IYJBILAqZTaXwmXR1BYGlgZafs2XcSb97GWeH67I2ZZOv++71VWVkXT7pZmvKZdBcrI3aJVlSw3VZrjbLO4gRDnt3Q1DWxtXe9EyGJEIHQioRi7t6JWVTb/smsJifnz8WHAL3oTsQCC0wvfS1VPvVphMaFLAHBOyMDdHJGDmEPJfl7wy8FhU3z9fkXKq+E5+THHnYzRZKwKKTSBdPhbx4XLdtp9OfhIB3g+VjDXcmmnKke/lnOwtvXQoL9XU84e8UHuByKsjtTLDH2WNe8eH+OcmRneVpm24W4Jx/7ynuvX89JynSx9GCzwDcTwo89u2EcNBbVpi2XD0BLYfwIOKruZtE32y17PDz9RJNFS54+nh6jY5sUtxzE1i0tbVZmplBmCIgkOfWCpuzYv7wWk8p/N5Sxj18djyNoobBwGcG3ohGJCjyObqq8trKYiaFDBlLSFisi61558Pcz8+7l3bofPqnUPK6r7Qg9fTFcP+7V6JaS65OteVttDXt7l7vHpc/bc59lJ+Ydv6ol72ZgMUAH5xBJp0MOAj2PXk7UBZzdHkHwcshIiikzp0LFiBRBgTsyLWyv4qCYkV5+UaL53pY/PXXX6lXrwq4sHQuNKaAzYISxd4oCCdEQEDe7o42HiuORtbBYOCxQxAE1w0IaIy1iX51QfrCJFCCbmkleGd3NNj2V1DN3oXxuoUnNUBnvJFlIbf27mUrI20Bi2FnqnfuuHd2YkR55vn6vMSuivTR+tszHQUve0te95e+HSh7/7h8bsWuv+kdX/aWjD0CdJMH2RdzkiNPHXE31lEFMxDBx6fgcZ72+9tKr4FhOCN1WW42JqCoKNitYAER6w6Lpg8zOuNQ6PgLcXMb6rKth8Wb168D/Q/BzRUeRGIXLNj/uVgAD7SB7if7oJvPSmVQLXBYuPizDhDgRy1lheKbCR+etS27qmc6gCAGqYu++29H7gP+z5kOsCLn0rINexkWr/tKb8aH6ajI4yVWZDIWK89lGWurutoYH/d1jAvzS4kJTos9eiMu9NblsOzEiNzkyLspp/KvRRemni5Oj7mXcbY+LwHMY67OuRQR6OJgbqChIKQS8BiY8RGIb0Jj7Ez16u5ehoIUi9LO6ErKZ6HlEOY4bOEOLRbr6NLCY7oT11g8nR0c+/v61+kj62HR3NRkZmIKEYkEJDrSfluxbL5V2NyBvu7e237sF7DzWfQAEkELg4FigKGbggMMAhkR7DPTVw1iAnBBzXYuSCJAd0/7rSElqZYKOP2BY7Zr8VnzOsXn957im5fCjLRVoQ6D6yYM/4hDoogYDAWPo5OJbBqFz6TZGuvWSAoEngnxgPMG+K8IGIyprlrpjXNvVup8A5HxR4HIeNAVcphMbNw6UG/bZQcvgIfMoeUQYr6g7F7pOn1kPSxu3bypIAIamYCHBgZzj8OCzBUvJGH+Mt5+28s6+KybTJoPkWCAxcqj0RQEEq5VS/oiR4B9kSFkAMrIT7JejFRBFTlBIWZuqPJlb8lkax6kQr/sLSm5ftbbwRwwScFsydBySRmoiHgl6THzw5VbwYJLpzpZGJRcP/v7SmPt+eHKodpbrtbG4LLQkch4OqV/t9s3RI4CNt0YB2TmgQcOhU65cuXT0hKcYayBxZcvX05FRsLrX7kRiZ0rbvT3Emfpuvgr6Ga7HrTzWEVs+kUaxZ9EUENj8CvTRcshzp08/HL4EYQJoG/2ds1wf4SRLD5rAlkFqAk/acjOSYo8d9y7JucS9PrOD1cOS9pcO1kYqoh4snAOcPWFbEZeyqlNYUHCYnVU5E8He3RXpkN7hyQYpeI2vAonFpMjQ+jNtoRo47HciHjItAi0cgoOnp6a2hIWszOznm7uEI4wcohoKnVSUugIrEogJa5i29lse8E6pxpghvM5ON5RAYfF0tRybPCPkH+r336U1NH9NNMOSjCNhcm2Jrp4FNrP2bKv6gb8V+8flw9W37x1Keywm42lgZaWsljIYmwshgGtJFD5g0zMSjgJhwUGASSGqMkLPA/sL0o7szEbaqIp95CLNeg6wckhDpMIDTu0eW+15vBEDbQcwsrcoqO9fUtYND5qMDVaNpsA2SxIVAaTAVmxflsb1b3VLX/k/OW1kQEHbcy6a5ZzCEBwQDSDE2nj+HlnoRQjwcbrwTMLkkKtkmSF6vnhyt+6iq6dDVGXFwjZjGtnQzYt9f1bd1FneWph6umEqMBj3g4u1sbm+hpaymIlAVeeyxKxmQIWncegcehUAZN+WwKL1HMhlgZaFgZazlaGJw8dvJMYMVyXtdFDNjdUeTflFNiZDC2HEKBQV+jbxPTKvvIpdIoqLAJDxOOXltyDixdrNpGbNzKhxvZoOYQOFlu+4gd5ryCa3CxaU/apyHLlLSZNF6Y+6aopP8xPg3MLScDfamTXVgTuLE+rz0/cykO91a8+jD1cnGxZmmwGwvklwulMR0HiKSAf0FxfozD1tPSk8rmhiun2/LbSa4WpZ65fOH41Jjgp+vDlyIC4k36xoT4xxzybioAGegMPM+vzEjvL05613N0YxAvNbbLlbpC7LZQ8Yk/AlW+WQybLqm685h6bbrZWvLh65Qo8sX0VFl++fImKiFgrWBAgwWJ3ls2NE5J+ppzDMMcthwRLitIR0uOj5lcUVBAfH1eixqEV3Djoq8o4e8yr4Fo03Ka+8bL1Z0buS3oNAVWVoa+etdyNPOzKpVNNddWyEyP2ptbK3FAF5BsD3dfRVPKurVgb17yNx3In4uFGxWMhIdPT09A+sgqLmZkZj7WCxSmYYPH85+8gkqQXlgeRAI8jCvJ2HmsvhzOMxclmwNC0taoJ8v9ANxsXa6PmoitwIU76r7b6tqMs1c3WhITFaiuL48MPtRSnPO8slG6z2upPyXh+rCE70NUGkmeNsLv3g2zEBHgGHhuFlkNYW1h0tK/2MlqFRWNDA7yxMVyw2JsdBJzuOVgiGhD5rq7ysGA5zx0EB2DrlCH/Ij7cX57LOuHnPPLDrbPnhiqL02MMNJSwSKBAs62JTvLpw7V3Lw/XZf3eU/yPJzi97i9NP39MWbhsaGYgkdFUcvtuDd5bweIqg6oGy0YUC4TlZWWbcIu8u3fVlIDKfuChhcGWrVgs9mYHAR+gSBLKBU2DgsenxkXOPW2FGMYnIP8CSGuWfjQUJFkZaom5rJSYYDBkQfr10r/9vack6VSgPHe5VhgFjzPUVA72PHDlzJHi9Jja3MvNRVc6ylJ7qzKGam89abgz2Zr3W1fRy96Sl70lL7qLf+sqet5ZONNRMN2eP9Wa96K7SAoPa7131c5UDyvxgGPlEHZ43D32Ln1jW2FiUMC+x6bvh4kXBAz21s2bUP7IKrdISU7mslZLpB0g4Jv4y9noe7ODgM/QyWf5kwhw/3ugp+MolOousUJ+fNrwYcVbsRU5X/XdO3vUi0UlG2qq3Lt+Fl4Bc6ufSD8/9ig76rArWOsfQi0WieQxaPvUFC0NtZwsDL0dzII87E4eOnj2mFdCVMDVmCMpMUeSooMSogIvRRyKO+l3/oRPXJjfo/xEuCEEft+Z9oJTQW4sScdsSeFb1GU6peefZhWDAnYzD4j7hR4ELYe4HB+/sLAAMoxlWPz111/RUafg1RT9SaR+SebxT7JiSQFyCoMKV5901ZQe5KVC3ELiSpXJevEoP9HaSAePRrvZmrSUpEgR++GEkTLuf5B53NeRx6BBDl74ssoyxiAQ2iry9zLObsot3g2WF6aeBhuIAKk+cghPIuHhbt3oUlZ4UMDuE7B9SQS41BkWegJqrLoMi4WFhaDAQPiDRVIpYIm0tz/mMpU+uU2/beAxvUkEyFdCxuGuXggHsxRBcMjoHHnVd+9qTLAin0Ml4EO87Psf3PhxOaDvwY0zIR7qCgLpgVjwlYTGeBRaS0l07Wzws5ZNekfMD1f23r/ubmsKhf6KAX/pP2Dt3nSRBwXsExQS3Fvp5e4xMjy8hltMPpt0c3GFHgArh0hg0F5J0oR2Gp+31SR2dD4L8P+uBosfcncYbimFM4zFZw3zMjTHnmjKiTzsyqFRWVTyqSPuo7AWgVK4gvSvZtrzbyeE+zhaGOuoynNZkGkBWj34AJBSiURlIddUR83L3uzulVMzktjMjbeYac+POeoF36RcCPiqf85WsXH9z6/NErDcb9be1rYGFl2da4pi0ZDImywG6CHbS8ECmno3n3WSsloyRVNZofzOFbByIwiOpelWWfSR+eHK7sp0XycLGpEgYjMvRRySpWXQRpptPDPTkV+fn3g1Jviwu62Dub61kba5viZQq0NLxVBT2UxPw05S9dfXySIi0OXGxdCGgqTp9vyt2NXbgbL8q9G6kgY2IKqwckAo78+QKqBFhtcTAPKhVVSrHzxYA4uqyvvwxsbKaEzRihoy9fONm9BE4QMgUhm/HCxOwGCij/nP9MOd7F2yh3ZW51yyMdYhYjBqYv71C8fADgwbKb27M6/67j1pvNNbldFemtpYkFydc+lhzqWW4pTHNTdnOgpkFGg6y9OcrQzBYA4QFjjAIbWbCG/4Gkof57HoRrBiuiwavTC/YA0ssrOylMSrdQ5NcLhqLqCGvFUQPv2BWCzp05L+bb+AHQakoyHBZdJRVaq4c2VxugPaSiRuM8B5se3x7nH53StRemoKWCRqn7rS3ZQoeNOGbX/+sy+YaMqJCHRhw2qegNEVBySqqfTaJtLXUPq3D7kMm5UyE2CV+4z0dLAg37LImZSQyGYARZPBw5lIaJPE9P4rggX0MNeZQC3B5bcHiQoL9HzWXQXB4tNsJ5D5vp2mChL1RXdx8ukgRT4Hg0BaGGiW3ji3C1/az8DHbGdBSkwwZLyCSCBxVSKDycQ6LvMnIaODz3IlrtFRL164AGYgLsPi/Llz8DbokHb6rwgWECyyWWuy3dUUxEU3ExZWasXLrqmC5Jxoyjkd7MFn0sFqrwXXTs+05/8MSsv+N593Ft5JitBTU4DHH8GRIUChQinEGi7jZyBjQKKjwgMvoqOiXkkKuy7DIjrqFDwDIJhMHpb0iZGkju0ymhei7u4G7XxWLI0Mz8DHIJDBPgefwF0kO2EY88OVj2tuhQcc5DMBw8M+NcXUc0efNNzZSgyUnbq7u3KyNS/r8kkDDWV45CwcE+CYg0IFk4kPuIwfj8vaSIhAWD1dtBwiLPQEWEIJgMX379/DT4TBJ3eCQgZbSu2BM33jXAcF7HouM55O2YfFwAv8AP3ZBby7aXFQ0C+YJSCjSgISb7Dm5slDB0E9UIHHPhPi0VuVIT0BZHdUl/KrNwOlfQ8yEqICNBSFcMsYDksgUtk4HNDSDH6wkCh/EqGMw+jl/8OvaAiZCG83ERJ0ZEqSfgjA4uufX4+HHIXPI4pKeSYWvPs35M0ePquUwwghE0WwzET43Pxd7Yea70ESxufnXYvPGrf1qcKJNFidecLfGUQGk0wKdLV5lJ8EBWzCr/zHx3NDFeONOcXpMX7OllDxXvDpcDgiS1lP3tyNo26IJ5Dhjwz41pFIFwI+j0XfRfbppi8eeHKdReuQn9/4kyd///03AIvFxcXgw0HweZylUWfFgjfyP5QSImU2m37VL2DXcplXGRQ7PG5dwyL43IQcVmbSmXfjzRAyPs10yC57gpQeeJh5ws8JRAYBg3Ew0y9Oj9nK0PRPgeN5V2FDQdLpYA81eQGcNwONx/Aktqq+2sGjOgGx6m4nuFr7CUQqGpaYKamFirDC4zKZVNnr4Gy6zvCTERQS1MIBLYfwdHcfHgIMnQAs3r97H+DnD1/6i3Ta7/LCvVRDmnjMW0yaP4kgQqG2kr+gGdqZGdaX3PgwuZw/srvMov4HN074OfGZdAwCiUEgDTSUk6ODOsvTfgbbeN13r+f+9bTYo+b6mlAUBfQ4eAKZo2Gk5npcJyAWPDQ8w/l6lkQyYx0ysHIIAyw2mU5p4W1ZqBVO9W3Hp9dWNzjo6NjfD+SMALB4+ftLXy9vaJZoOUQSg/ZGXvhCzB/dVVLhtrOBX9DBZxWw6ScoJHUMBmq4DZ8MBonGwGpjAO8WCu3lZNN6PxsuZEjCc5aD7WR8vwerM2OOeqqJ+aAdiUkhu1obZ10+OViduZWHU8a/DF42N1Qx1ZbXXJxy63KYl73Zul0DfEYsjshRN1J3C4UwAQ40vaMEBrZEKguDQMFXAy2HUMegY2nkhh9OGBkUsGNpZHhjRDtrm+6urmVYzExPe7i5QffGyCFSmXSw2M3uck3hVJcy7uWzKzmM8zSyCQ4LF3ygmWDRWBKNzVTQYojV1zFVMg7n4WD1ID/t1UjD8m4y27lTIQMol9CWfyMu1GyfBnWlNa2QxQhwtc69EtVVnvZbV9Hu9JSXvSUDDzPLM2PPn/CxNtKBWlBBjwYOMCg0kcHjaJspWHmpu4dpHzoLB4eWT7TIyIFE42xEhgIaHUEl1f6wSSOeRlGAxfpamO5vawXcIgC3ePb0qevBg9CM8QhkOhNwiEz/NLP3gETXSGVQnQl4+N4GzQGLwZMZPLbKPgULD02vSA2PcL6eFYFMR8stGz1Bq5yJnlbK+fDWyuwXj+sAj8ls5+LTHYif7x+Xv+4vfd5ZeO/62UMHrdTlBZDfS8Ciu1gbJZ8Oqs6JH310e2Od5U3Zxqvee2MN2Q0FSTcuhh5ysVYWcMFCDNBzrRtg0VgsjojF4AgkOltVX8nOX8sneg0yfE+LjB1JdM46fgm08kahQsjEKs4PKa6JdIoSDBYmhkbNTc3LsJianHKHuTpJHU4AACAASURBVE9xcog0JgMM1JPyru/6q1YeK4dFCyITFdBouC0FXDIclkBhCTjqhoo2vlo+p6A10vSK5Ota4omrVbHB66kEgrmBTlxk8IP81PGOivmnLR+3U0yAIjv1t+vuJty9EpV+/tjVmOCUmCMXw/3dbE0ELAZcGCRisXpqCqG+jjfiQstvnm8tATwd4413nrXcnWkvmGnPn2jKGaq91VN5vaEg6V7G2bTYo2H+zqa66rS1jZ/XoWHzjwgkhS1StPbW9o+BnlonIFbL97TIxIlE525EBhOJ8gMUV3rvblPNLq3NwDAzMW1taV2GxYsXL3w8veBzTWbQJW1Bdp+ZvilouvmsUjYjmkrWxW6SsY7DEalsMVfLVNk+QMv3NHxpwLGGx0mupgkOv0mnaxwKpa4oPurnmpl4pjw7+VFRavf9jPHGnN97StZViH47WNZYkBwecNBAU5lOIkLiLRaJYlPJLCp50/ebgMEo8Nm2JrpB7rYRAS5nQjzjwnwvhPlGBbkd8bDzsDPdr6cuYDE2/S18YbcZI5AMeU1lx6D1yPA7LTZ1JjM2QQYFiXQj4kvY9L5dIUNSgW9VdrG1Wq6zBmwi796+O+TrB59xPJ02KxaM/3NOsgEBu47LTKZTbPA4eOgHeFNAhqBzuZqmKo5B2n5r3pV14FBzPc5W2YfDrhb1gk9bUrwYxWMyjLTV3Q+YRQS6XjlzJDsxvDD1dHlm7MM78Q0FSWU3Yt1sTCj4Nb6AdX9kbz4SEEgmEsVFociw5FssFs/SMFZ2Dln3Ymj5nRHvP0hhCTCo1dq34DxJCKQ7kVC+q93kDHW1xjLQ0cjeob+vb5lbfFz4GBR4GL4W54AGAPyxrUs2b8oMtjrZwWfls+iHyUTxBuUTg0ARSHSmorailde6bXUdIKCPqk7BTAVNLGY1nQSw9hCIBrp6Brp6TOr6iDocEkUnEeW5LG1l8X49dU1F0c/GBB6BZGIwSlSygZi/T8hl41er1YKLTEMidbFYbxIxmko9T6OGkMlaGCxkzyWyhGx9OwWHIA3vKO1D56AH1/aLUbD0oAmUsJj1mKYhkQEk4lbNiLaiy6CAHUUlwysgeri6DQ0NLcPiy5cvx4JD4LA4RaUMC7k/rp32C9g1XGY8jWKMw8KjdsF74XBEGk9RZGSv4XESenhZBoq2vhSuPAa52l1HUSyfnXW7rqY25vRpD1c3WysrI319TTV1RbE8n82hkykEDBZuZgaaMyCQ2hisLR5vh8cb4nBiFHrjDOFrAjq7xVSyBosuJBIoKxDHI5BUFIqDwypRyfpCnp2eup+tabSHXXqwe9oh52ATHSUaBdqqmEiUIRZ3jEK+x2FNwZJ7b7EYGhgMeBmOSKOrGXFMnMW2fmruJ9dsKIfOKdsHspR08Rt2Ug4SFUej7NQGGgbE7a1uIv4+vk8gK+f3799Php6Ar1oYhdIr4PygdtrOB0RLPxIBKgUPrTKwazB4XC1TVedgbf81Wpk0WBw6p+l7Ws0jXNHxCEvbnEBhQVIYj825kpT06tXLL1++vHv3bnRkpOFRQ0lR8a3Mm0kJCWeio48Fh3h7eEIxJQQE8gCBkM9mDQr5Q0J+NZd9hUE/TCZZ4/EaGAwDidooC4Ow2C/inbYxueBuG+pi5Wlt7GFjHOBoftLVOtbb/vpRz8qLJx4Xp7zuLnrVVdSYffGIlRF3ZbciIJAaGEwohfKQy4FXQgZD4KbFglAKmSoJLsGgMFQFLbahA9vIUWDhqXzwmOZaSUvdNRQwg5JocL0MLYdwJuDv7zDID95jEC2HOHI4aPLZs2Vu8ffff5+KjMSvRDag5RAhZHI7nz20KykGjCp+wGHE0sj6m4mWeAKFqaClaO0j466hExCrfeicpk+0qluYgn0g39ydY+zENnSgqegT6TyAo0qMxJqqavFxcQP9/R/m57/++Sc80RaMOHr96pWftw8ITU0MppjDgrKuQdq8khf2Cni5bGYUleJEIKhiMBv5Bx2FdjPUyj9/bLgibbbxzqvNDBtTDdlF8ScOaCmTV15EDhLlQCDcYTEhDjGnIHoPdIsVvpUXvpYct1gM9RUSkHlKrH22bCNHtpEjb7+rgsNhDa81G4qmZwRPxwJPXO0yiZZDKKPRGczVPspS9g7oq8MkIrxa1Ynjx5/Pzq7CIjbmLLwR8iESqZHH3kUpiwEBu5HHzGTSPIgEqHkdxCQwSDSJzuHrWqq7nZDGFVZswAAg/M9qeEepuBwX2/nz9ruCKwX9z9S2oAhV8WQGKIgxqVQPV9f83NzR4aH3794uLS1++eOPb9++gRCZGB93cXIGJ3OMQt7YpxOq7vJeQTQi4mexGP4kkg4WS13rm8DIIVRplKO2JjnnjzXeutBffGWiOnOm8c5sc85sU05/ScqVYHcdPhsrqX5EQiC1MNhIKqWDz30rv9xp/I288Hd5wXMxf1rMmxTxnoq4E0LuQy7TaiVWisgUMLUtoMfkmDiLbPxU3cPgG4qGRzhbVR8uY3GBrPYdwGJAwPYjEeB88VRE5MuXL1dhkXDpErztlBuR+HDnpRRaeay7LPpxCkkNjYbnkYKUwGEJNIGygoWHjExCyy9G3TNS2fmoyNqXa3oQWqP1A0N7uroxiSOPw5MxSBQWidJUVQsJOnwjLa2+tubp+JN3b94szM9/XFiora7eLynTQEQgUyQaOISDrQaTYkExh3WUTDbC4ZjI9c4aLhZrLuT6GWpFuVjHBbrEB7nFB7n5megKJeX+cXIIBTTak0QsYDPhRbFfywsmRbwRIWfdW9fFB/JvQSIRaGyG5v51TyrZUI5KNpRlOVTR2pvMWC1+J0Chru6kkmsXH0hQhl5atBzi/LnY9+/fr8Ii88YNeDMAcxyucCcJbh18VjGbfopK3ofdRLREI5AEMp2jZqjqFAwXrbdgGKsChMDSi2PivG51Nv3I2mdLU9IjMnhYLB4Ukngs9gEbm3OnT2ffvFlRWtrc0HDpQhwoW/BQqBw2E4TCG4lH8IVY8NvK8UIseCEWvJQXvJYHOLykA7SwmscJp1L0sFgoewW+mpuOBSh0DI06LOJDRQrBjUPSfmXzsInglegHPIlOVzfe+KRcU1cF+0B1r0jQTK7hcZIhVofuDmwiO4FFLZdpt8KfAMkJgUy9ehWsAg7YLf7++++y0jIdTS3oBuoYTObatu7QbrRuMCBpxhpHI5vh1jNb8K9h0VgKWyg0ctDwjNgCB8tuQ5gAcXhZgJBsrhtXZ6szTB1LqkidQGFh0ThQ4MCjMSIe38zY2M/Ly8LUlEYC4hiU0JhCSVz7a3nhlIg3KuQOCZbf3ccCYOscEnBGhZxxEXdSxHsu5r+UF7yVF/4mFt7jsPxIgEuPilxT5gsthyAhkDwUYISAtmr1tWXHQBS+A1ptbGkkjKaSOZIoExyeTFMx2PQxOcbOImtfVbcwLb8YTa9IhrwmRDXTHXYOKGLTTWBpqDQSOS/3LoiHZVi0tbZa7F8t0cpCopLolHUI2PTjAy4jgETcKEaAc8XjyQwFTSVbP22/M1IwsSxAuIaK7Q5JBAinTVdEppOG9gxNU4pAhUBhYtC4dbI6OCuonIssdWcfC9hjQu60mP9Gkkw1KuLnsJknKBR7AkEZDQSPESXSgz+JdJ5OjaaSD+Bx4GqQEMhEBm1WLJSEKAjB5qDSYQEVA8JiiTTlfVKel2/uoeR8VMUpmC5UgWCx0wK/GUwaFEENSKwKivcr76+BxThMHAOzH89QydvaU2u5zMNkItweAk0Rg0SRaGyejrmaa6hOwKpNZh04AAHCK1L54FGRjVQBYodsgw2AYz9ZoIKnMAGhbK3MCKU7yJ4CMyRg/ybmQyLIWwXRkJAfTqVwUSgxCn2FQZ8WA5vOuIj7gMNwJeDBvcYWj79Mp11l0DOYjCoue0TI/11eIKXYbQZjmU5Y3DawYBs5ck1d+MZOZPZyWUQ8AhFB3VmB33hYl1q0HMLUyLilGfCTrcoW79+/D/BfE4kTQiZuG+shyVZbNYZAmMBi8TSekry5G9zXtR4QvmfUPcKVnIIFVrIKEFLens2/MnRgaJmRBap4KgvSY9FyCDMcrlbSL2dSxNuUBW48+VjAfr4Ci9/khX0CXgWX7U8CQpugzeL3le7AKfTl1GqMHEKMQlvi8YFkUjKD1sjnTIn5UlwK+Sv5PAAsVKRxC/B56WpGeNJyf1pZOqOue65wWFcotBzC7aDL48HBNbD49u1bxMmTePSqvd19u1zpHj7bh0TArS1CC0iXJBpbVR/wbmxmp1oWINzDFByC+OYegAVip5xgp9dLwEERquEpTFCPlXALoDeK7LAYFXKeivg9EjSkMOi+JCK4g6DlEPJodD6b+U4BEFPAVn5QthYJgQylkLsEvJeSDejd1p1BQYKVcxgWkhpRWByJpqK/7cpQ5bWwK+4hazyuZCcFfvsF7ENAL9LVQAV4naRl2eLvv/9OuHQZrqNa4XHFUm/TxmMdXFsgAYPCkJkCoYGdhkf4Ot6wYoE4peIaKn8ggGfmxt4DQKwBkANdwwRPZqCBuDdclaRU3I5g8VjALeKwTlDI1ni8GkzqZAD1COkzsEi220yanqQwHBeFusNmvlUQvpIHtJtpwM20Xi+Fv8Gl7OXSYTgChaZquB0sHMh8JYykaixWDnGMsj13h9+rnc9yWUu+C7HnoeLfq7DIvn1bSV4B2gi0MJgsqcpIp0Trhaz9gJeBJVCw9NTaIF1q+8doAALEMZGNH9fUZbunBUx7P+NgGRwgsUVoBOCmqtghLB4L2E+E3EkRf1jIa+ZzbrOYxyhk0xVjBpBDvGIR7uGzY6jLkXBiNDqPzXwuBtAgi8kYqK8rSQrFU5h0DRPpi8DStyUygcbaQI9MFCqZsbPyjPCG1mDb3Izr18FMw1XZ4u+//66prjbcpw/BgokE6rBISWbqF7CDyUS4Hs+Q1wBjl9exCnXPCJGNn4wWCOlr8YPfUoRqGDROZSXxWnaRE3zPhoWcZyLuczH/hVgwKeIXsplGEgXPgYDPZtFqucwqDiOVQTXCLTe8V0Jj8tlMKRop/PUFesauZNERGXyGtrn0h2VomOIpy/mhZjsvEZ8BS+QEgMVklRQVg4LFGliMP3ly0NEJggVGDnGCQpJeyWtdyBeBSJM3c10XkKgTEKvqHsa38JT+kHvzLU15H45AYSJRWZIyDTNivpTGvutoBn2UGDYA28ZDDhNM7eWjUFZ4nC+J4ELAK6HRkLwlQqGvMuhdfE4PnyXlBYP+ctJK42sSV4GpZy19TagKOljccon4oJ2XiI+mkrkrLhu0HAIK11sjcv79999LS0snjh+HS53beuRK1pblQsshOepGGwULDZ9TImtf6Q+5N98ytMwJVDZWDpEoMX7LYreAaLZxULYiCkDv0roBBYE0x+OOU0ixNHIqg5rDopVzGI+4zE4+a6Py38VnHZZwXwwSTRFrsAzspa2JoQOJpwSGFjCRqEs7LBHfxWd5kwjwOPsA/0MT4xObcIu///479epVPpsDPZsuFnNbau3xdh7Lk7im/hKJwVO08Vm3iWj7n5U/EMD+v+19Z1cUzdb27zgfnsXknDNhgCHMkHPOOScRFBREjARzFhEEAyIqmDCAgjnetwoGUBBEEEVEFEXyvKunh6Jphiigx/O6WMvqnpnurqqrd+3a4dp2C7/pmE4p4Vn70HiQepHCoNfriH8l8foOVC9nHEUyxC9LpZkaGXm4uHi6uZmbytl0deQpQQvDxeIUBIIPmZRIp65n0rayGXs4jFwOs4DLOsZjlfDYBzhMW5ViQaIwp9U3uRYeFLbaG2JDJM6WIv6SgAPccnCw9I5t279+/aoZFpVXKmwsrQAseFjczinVi1oJfx2TjjRxEnAEsaXbRGeYfsByocPk7q7ppnOq92aWv2VoGxHwRA8y+bpIMLc6GDWq7LeNTLoxgUDUwoh4fEuFwsbCwsXBMWHJksOH8u/dvvXw3t0Tx47Fx8QY6OkhIxbA2MJZYhwsVhuHMybgrYgEUwIBzqVDuU819p1tbEuG4i0gfTOGSqmapV8zj8OUjzrx8VoYPod7+tQpZCjC2E5EqVQ2NDSEBI5lBsxEvSjksswRN4BYGcQGMv9ElMCQhaSKXcI09nCRT8LqhQSHK+Jx20YNUBMXiMnOPJHwzws4CXQqHFvEZ7OXLV16srj4bOnp69euvqitaaivA3//PLi/Z+dOTzc3iUCIXJ3h6SRgcEQ8ERljBp+nsIQT3aeoUWLomsKhewwMNptFfzxLhsa1zDECqomKxTiVU6lU9vb2pqWkIhkNgqYL+KkScv0oY3Vvoa0Oiarj4I+MDIDyKiPXaLtHofr2Ww45CmdYvVjHYtTpiF7NJl71gZhXxGP5U8ggRdbH0/Ny+QWAA7jR1PD6bdOb5saGxlf1r+teXr1yOWvjxoiQUDMTUzqZQsJgRUyOkUwht3c38wiUu/jqm9txRbokotrHTcARGdpGIAxn4iipdtq66uAjAuHwlHaEifh+JOZFUsfZIVGKBRoWSqXy4IFcZP06s+msFygqIxjvfJmVSdgqpMCAApe94ib2cPHP8Ky9aTxtPAbrRiZVCPkzr5BSLeTuYDNsiGOxuFCcnK9f5eVLSFi8bXrT2dHx7evXL58/f2hra37T2PiqvqG+rv7F8+yMDIlQyMETfNz9U7cfWl1ckV52K+30jcT8M94p2cYOnkw2H04gI1GZLEOrybROWHGGhzqESr4yy0C981AF67HqQ0QsDqVYaIDFtavX7Kxt4FtCOhQWm8Wahu8NqvYwfh2hc8UGXrFIWJjHZ+v7JQrsZxQ8sdBYgdULHhaXw2XNpBzfYzH/nICTDEWu4wlaGKIWhoLBklRmYy6TuT49/d+HD9RyorHhS9fnoaGh9vb2Rw8fPqutaW9rax8Fx+bMTIlAqEOhRq7YkF52C/WXcLDMMSqZK1KLAQpbyJE7whGdqAFhGlqSVEwHVAx2HZP2aJYrCPDTwrMs5PJKT51GKhYaYPGupSU6IhKZWRVGJU9NJHtLxA2hjKtCQCSQtG19URkfhkErJkbdoTq8OIcsIxuSKgoynk69MV3q910R7xCXBbgVaFicgbbUysRcyFT7qBTGJoX5eS+f1TbU1314/76/v//79+8Hc3MdbG2jIyL+efSov7+/+8uX9ra27IwMAYdryGDGpmahMAEfphRfdY5NYXGFUFAMjsDUk/NtJ25T/egSGezcMcDj82YTd1Mr4T8U82JpFBAUoqoN4PbwwVhtALTdAj4eGhrasW0bjw35DuA/YwJ+2pCcjePz4fFaGJ6hJSpg0ygs7Q8xanEt3OHdnXzyhbkGYsWGUunXMelyAgG2UHHJVGu5ZVzaptQdBc6OHgwCJIqJWFyQv3/l5Uuv6152fuoYGhp619ISGhT0f//5D41EOn7sGFx8dmBgYOvmzVwWy5TLj0/frBEW6WW3EvPKjOzcCRgc5BaRWU+UFjyrMZu3L4U829ozKKZ9Iha3cf2GDhVfFtidapAWSqWy6to1e5uxdYSKwa6drsYJ8AgDMNHYQn3PGOQ6Yhq1VtsjenHkwTR3sfWjiw0JOCjhMYvFQFmWHouh3JZCLmsVg2Y3Gt9LxmAlXIGXm1/yjsL00pvpZbcS1m2XS2WwRYjDYK5bvfqfB/fb21r7fv782t29bcsWMxMTH0/PWzdvAvm8ZdMmFp1uIdZZtn7HZLCI3V2kb+FAwJPoEhnPynNiR4DDj6yFWTWdGRqlb9ZMYC6QCIRlp0unr5oM0V18+BAfF4cs6Og3HSofiHjR40UTEU+U2Hgjg7IUsRl/iNbJt/NnyazhdSSQAnFSPRLz7op4FQJOMY+1g82IolIMoChltdOZgScYS2XhcSvTDp0Zm85T1cExSSKWWqyamZgcKyx88/pVj4pk/927dxWXL//7zz8/vn8Hb2HGhg00EtlG3ygpa9/YdRBKRkpxpV1IPJXOIjP5HFPHiZjg2/mrnOkQudZsA3qhKj6qKGLQL0hl1lQbV7O0GBkZydm3D2nu1MPjD3CYU1v1t7HHMSXgtTBcA3MTKDRLHappHp8t9U1YqAALVbKNxnHUeJJr6Unl6RCwOC4WF06lZDDpaQxaGJVsRiAgw/8JWhg+jeFgZZ+wYVf6iWuouVyVe9LFyZOpSnsk4XDL4uPv37n9ufPT8NAQgAKysWb1ahIOb29qsXJrHupS8GFo1n6JoZxIIDOlCp6Nz8Qnh7ZRAl04acqVTCqdMvIBJSpqJXxUJW0ynrBty5YvqlBv5HNqhoVSqbx7546rkxNYEUhamBQG7d6U2lm5yp46zs/OERmMX0cMApOFTvPvWOeYubCNbHmWnrOK4WAaWJDIaOYy0GW4IWLz/LyDVu4t0jiLkCqwboepVAZH8ZvIZEcKDrW+bf75sxc1ykqlcnh4OHXFSrwWxsnGKXX30YkXTDpcbuYRRCJRqTwdrvlYkggSHGAFIWphltOpt2dDiPNUlXEKhxDDvTPQk14sLwdrHPKZx1k5wQddXV3Jy5cj7VpOJOKpKbH5WMJPolOBnQeyaxHJug4B5ojkWqPQVLFLOLKfv96G3BxCfRKZzjN1gKJ7ZmwL51q40/g6cBgLCg3woYDODAiMWpVXOnEKx86UVPkGRfMokFQn4fBJCQmP7t/v/vJl4lj//PkzedlyvBbG1dU3LffU2BVUi8jq0pveKZmQUWsSTVPVLz+Gjgls3JyJXwIlLa5BhsdxVXGjIyLrXtaBSUc2NMNCqVQWFhRItceqarOxuAwWfeot8sHxlnaIscXMWY6gLjFdAFunymoJFU0Syh2lPnDg+EyjeNgm9lSOmEggQ/RcOAKJTIdi4GCDBJnq7e6Xsr8YNX8TD5M35ZgZK2AzhtzI+Fhh4fvWd/19fSMjI52dna9fvfr06dPQ0NDXr18T4uPxWhg3/4jVhRdQ14k/cFJm50okTKpp8u38oYWPK4EfT1XUjoWa+CkOayR8FMMJnUzZv3ff954x1WdGsHhWW+vv44vMV/aarmhWtZAbON6AwZHKjYNXAPVCZeuMnfkLPZNvsmRqI4RQ7mActkrqmzBVCtoEWcJRODN0TGgCPbrIgKmnoKhIZ+g4vLONU/LOw6jJ03x4+npA2BIBFVqPSDj8imXLHj96+K27u+Pjx0P5+dGRkbk5OW1tbZ8+fYqLjoHsBFHL009cRV5qVUmVY3QyncUjM3nsSTRNSE0eNbcQtDBLaJTrs3GP3VDZlpDKpo2l1Y3rN5BQQLYnlRb9/f3bt24TIPjh+Vjc5ulS5dcxacjVC23uXJKl57t0VhrAtMhg6lsQVVn9QoWjPGqtadQ6Xa+4OUWC+anGHXJLGgvES9ZshTeiyPmbrL1iW76F3BIedDMT0+NHjnx4//56dbWDnd3//ec/FgrF9erqtra2qPAIkhbGa2ka6sqR2w7pyq2IRApDT7OmCQ0CtKmWEXCQpYQ3+wCLfZxxMQAUAjFjw4aPqnRTJBpAe1JYKJXKRw8ferq5IQVGAIVcPqUF/gSPDQcNwMsziUTVdQxCqhcGAUnzG87JNLCENUehmbM8CuLaMg5Pk8w+GIxr7krlSghYPAWDdfcIWHXw9GQg0HC+9GZQZKKQDuWPUwjEVStX1jx5fPvWzcjwcBGfH+Tv/8+jR40q3jomFuefuAZ5hRXHLlv6RVAodCpPmzOJpgmtIOZuFBZk/YQcniTiSR57iiUD9dFtEeQbQ1o25cYmFRUVExWgGcGit7c3OzOLy1T79fFaGDEOCvCcgnn6niowB5GXjBVbuCpixtjjjEJS5tfDDiwQInP1jebgluPZ+NAlRnD2tw6dGZmSgXqhkROpsZ2ys9DSzBrWMGwsLU+XnGhteXu9uio3J+fmjRs9PT1Pnz718fQSEoihSeuQVwhYs0OgK5tS04RUJbBvImphltGpt2azB0FFV5DxhPS0NFCtDkAB2ZhKWiiVytu3bjk7OCIV9TAq+cqUtfZQ9W25+mZIflqTiDXabvPpYWcb25FUKTQSKw/YCzMHWICNH14LY2tokpydg5y5GbVLb/qHxvFVWxI6mbJx7dqXz5997+lRjozAww1VH7azN6AzY1IzwQUT88+YOHmTiBS62BDaYE9QfeAzkCddKIUjM0Q43J7pYqOQ0uKeqoAoMhJbpm9QfuHCRMvmLGDR8+3b+jVr4YxeGBy6OPyuKStzQlHtCL8tg6dt4B0HtE55zAYdz/nUOkdnFKtt6wOvVnOABdj44bUwMoleYETCsq15q4sug/mbSSMpc6+poQlsuXFzcrpw9synjo+Dg4PwcJ8/c8bc1NRcrJ04avlOPXHNJS6VyRVOrWny7fw5cicyQ12i1m26/B0kJmol/AIuExknRcTiViQlNzc3I0EwsT2NtFAqlShXO14L408hTeGhuS/iRVHH0pXIZJqeczCAhdmSLD2f+dQ64Q0qAYvXsfeH7zIHWNBVkXxAKHLwBCuZPDg2efn2Q6uPX5kJJtLLbq0+cdXdJ4Sl8p9xGMyt2dmv614CgXE0L09fLLE3tVgxauIMyz4gMTKfRtNUyQ+GrhzOHiNjILvi3SntikhYQKVDqRQkQ7KeRLustBSAdSIg4DPTw6Krq2v1qjRkbSIeFrdhyqrf4yopYrBiS3cknaBBwPJZ7SEnE63wea65K4UlIBLIuo6Bc4YFtHJPqNXAJRBtTMxC4lYm7ShYfRwKmZn2b2lqpqFYbezx9/apvHQJCIw9W7YIGEwnN99UlS0r4WCpibMPVEBkSk2Tb+cPuUxVcUN4LcysEk2fSPg7xpP0ErG4hCXxyAjvucMC9qk62NohtyS2RGIRjzVZPRwUcQLP0AJJdS4LSRE5z1tcJ9fSg8oRkcl0PeeQOcOCa+VJ1zYikqio3HZoN0gk2cotQ+NTk3ceXl1cOTUy0grOOTh5UlX5FyIef8/OnY2vX33v6Rkem5VdCAAAIABJREFUGtqYns4gEN0jEtOKK1OKKx2jkxls/rSaJt/OH5l/7EMmnRfMdA9yUcDxIpOQdZENpdIzpaUD/f2ToQGcn15awAVHtm7eLOCOVWCnYrCJdOpkFpUHIoh9B5AyMQW6hj7xYB0xDl8tcYucWgbM/FOetTeVK6HQWFLX8DnDArYhMvQUZCaPgB8LaAPLioBEtjOzCUtIS959dPV4YxQKKJFLUnTY6mSviJDQG1XXPnV87Pz0KWFJPBOH91+2Jr30ZvDGvWIDUyhld0pNExoEW18o6Eb1SBQMNp1Bm7qYyGMx/4aQe1HAOc2HiFCFiFI9NBJ5zerV71SMaWD6J2vMCBZKpbK2piYoIAAZvmyIx+/jTFoVHlnWhkxh6LmEAljIo9fPYzYRz8aHytOmMnn67lG/AgvVHPhBrBhiQ4ijTRM4hGSKg6V9+LL05B0Fq4s06xype45ZWdjBO1Wptk5eTk5TY8P9u3d9vbz16IyolMylB04ZOXgS8cRpNU0IrGbQEgmjE4rF0kSkVyPhPxDzLgs4RaqogGV0agCF7EAionhHdETikyUl/TMQFZN6UCeCaGho6OjhI4ZSffACEbQwARTSZNatnYhVjYDFSaw9QOyFWVyGrvf8hfva+lL5OqqoH3Xa0hxUTqRw4tn4sk0c6CIDFTg08OmIyBR7U4uA6KQlG3alHjiZfrJqnMAovRkQFi+gQGmA0FoeF3fv9q2iwkILU7m51Cg2fatdeCKdySUQyFPZNEd3qkypGbS0qaxYqCS/JypSwzI+O48DsfAEUyFGUeRGFMwU3BByecnLk25cvw7S0ifOMjgzU2mhVCrbWluTEpcheRp5WNw6pmbFuJjHtkFU5OUbWZsiYsHn0wRu60fj69DZY078X4SFGiIqsiVIcjC4hAl8OlB6PhZnzOW7ufqEJa1btvlA2uELwAKWnL1PLpPDO1WVt71g45o1Qg7X3s3Pe0mqUGqMx+AgTRNBsYjEJWjzrDxVyiZELEPDYDcw1a7Kf8W8K6oc6CQ61YVEFOFwSAUChQbkIQmHt7OyPlVyEi52CkAwsTELWCiVysqKCjtra6TuaUYg5HKYE0uBVwm5PggWN7a2kVHAcrCO6PvPZ5IZja87/7CA31dbX45CRbY0nk8HOdZ8IslKaugTHBudvmXF7qOQWlpyzcM3jKUOz8Evi4/39/ZmE0n2HgEyK0fIVTuV93zM/QsMuFABdAKhkMt6KOadF3B2shkhFLIEp6HsBngwIhbHZbK4LBZy3Yc/tbexrayomHo1mR0ser5925ydjfSfEbQw3ioeFlTs1mMVFSiwgqOMWvMbBQ7BAhHyMz/SYlSMQ++urR/HzIWhY0xh8YHnHUwA3CBjsHp0ppOlfdCSlKUZe+OilhkK1eQT+jq6Ih5fm0wxEGoz6CwCFtI0uZPbNGFpwbP0pPF1Qc6ZN5m0l8PMZtG9yCSNhXnA83BZLFsrq6jwiKyMjOzMzPjYOBtLK6RBkojFxUZFv3zxYo4+kYmyRalU1tTUhAUHU4ljBP0M1a6keoKfF/KmjqbKU+gcqVsEkBZGoavmLR4HWkQWGBZqiPhxzV0ZuqYUtpBIogK6cTAfcIOFw8sFYjdbZz2xLjJWjUcksVQcVGTGVN5zGIVcSw/I8KriKYAva0EkWBPVSaqoO8KHBAxWwOE6OziuX7vuenV1V1cXPOvfe3qqq6oSly7VFoqAmOcwmXv37On+8kXjFM9C5QS/Hx4ePn/unLW5BTKXRAeH38xioMgw9nOYxqMFj5DmJij3MCJ9DntUnpUXR+7EtXBHhslzLT0pHBGNLTQYzZSff2mBlBwqZyZTakblapOozInVPdSTpMoyQsJCfZ5AYujJedbePGsfnpUX19KDa+HONXfjmrlyzFw4cie2sS1T35wm1EdiQiMOwEk6mSKT6nt7em7Kynr44MGPHz/AZIFGS0tL5saN2qIxyl9QrQ58B9mY3SIC/7Knp2fv7j26YrWQhJ/Phkg8zGUhnavjnOwYrMTGC5CsySHGi1knB3AUztCmQ6ALRW6OMqXDPhEqgyt1j/zVDer46QeqH9/Wl2fjA80lYiLZpg4MHWMyQ7OdA8zZuAYGS2EJmAYWLENLho4JXWxIE0ppfF1og80VUzgiiC6SRJtMDo27lBaGSiRJtXXcnF1WJCUVHT1aX1cHE/AiZxfZbnn7dsXyJMCtIOBwi44em0zDmAsslErl2+Zm5D2gwCQtTJAqbwAoGZfHkygIFU7yqLWjMzeX5ACuhTuVIyZgcSQqky4xYps68Ky9mfrmRDKNRKICz8tMpYWtL8/aG3pfzd04CmfoTTV1YJvYs43t2EY2LJk1y9CKaWDJ1DdnShUMXVOGtjE0kSJ9mkCPytOhcMUUthCaSKK6RAFq2jQcYnBkOgeqd6HJKKLh+6MZXMiP4MXCzsp6adySQ3n5NU9rNIoHJCBAu7qqysHWFlwteXnS2+a34FNkY46wUCqV9+7e9fH0QoYBs7HYBBq1crQK410RLxDB5TYuzwx2mM2aCMWPqa8O1yZg8WQGl6FrSuVpE3AQHYDEygP2vIyDxdjcu3IUztDEG9tBU25gwdRT0CVGNKE+ladNYQvIDB6JxiZRmXBEJ5FAghaICTVIwZgufoOIxUl1dP19fTdnb7px/cZMzA/ImVYqlV+6ulalpNDJ6pJeZqbyqxWVGhXPucNicHDwZEmJwtgEKDJ4LYwAi0tl0GCj+FPVZgRsqVV71GVA69T3XyaYPREKlCghlIJwbQKOALVVQblsHSN9z2ijgOUG3nFCK8/xcy+l8iQUloBMZxPJdGjK/6T5ngnCGFSqs4PjwQO5b968mcz/OTg42N3d/b7tfXNT04f2DxrXlLLSUrmxmj2eQiDu2rETSYIDYDR3WKjQ92Xr5i3IRCOVlw+/gUm/rXL+pjBoIEWAwZMgAy9UOSPo+iBjy/kkyzzPZsxHgBpNEpnGFOmxJDI6T0KmMv8b556Ew9NIZBqJTMLhkS+bmC8IDwmpvnbt58+fYOZAo6en501j4727d8tKSw8eyD1cUFh+/kJtTU3Ptx7wHdBobGgIDQoGQxfk71+jqp4NvgA3fgkWEIHO69crlidxWer0bfh+Mjx+G4txT8RDRmpR6GzkHlUWvHI2aR1+PCtPjtyJaWABUa6OpgGC7s2hQcBgaSQyl8XWFopkUn0zU7mdtbWbs7Ovl3egn39QQEBIYFBoUHBYcEh4aGhEWFhkeHh0RGRMZFRsdHRcTExsVHRYcIivl5eLg6O1uYWJoUxXLOGx2FQiCTmjyAeDtCIimUymkSl0MpmG3MUQMFgHW7vliYmrUlJSV65clpBgIVcAS1RoYGBVZcWXrs8ogf/jx4/nz54dLihMjF9qZ21joVDERcecKC5+29w8mUTp7+/fsG4dMFVLBMLTp04NTUiD+1VYKJXKp0+eREdEIg0meC2MOYGwn8PcxmYYE9SF5lB7VFUq0Yzc6zxrH7aJPV1sSJnc1IgcfVSbiMUxqTRtkVhuZGxvY+vu4urv4xseEhofG7dqZUp2Ztb+vfuKjh67cP78zRs3nj558qaxsa2t7UP7h46Ojs7Ozq6urq/dX3t6en78+PHz58/+/v7BwcGRkZGBgYGuz58bGxv/efToamXlyZKS3JwD2ZlZCXFLAn19PV1d5cbGcJAKAYunMnkssQHXwFyocBRbukusPEVmLjT2GHsdCYc/lJcP5nJkZORQXp6uRL3Xi4+JuXvrZmcHlA4Pv83Dw8PNTU3Fx48H+QdwmSwhl+fj6XkoL7/1XSsKOigxoFQqS4qLjQ0MwShlZWR87uxEfW0eYAElJ96+E+DrB3QZ+Jb2JGIinTpG3YXBSqzH9qjGYTOIz7YPENgHcuSOFAZvnITAYKFDSD8Yo6yGb0rGE7hMllRH10KucHF0CvTzj4uJWZu+Jmff/rLS0ls3bz2rrW15+7b7yxcwB6gR+ZXDkZGRj+3tL2prHty9s2v7dhNDqKoDiUQVW3mYho+rUaiIXs8zsEB2auvmLUhXhSpPxwcWPD4eHpfLL3xsb4dDJUZGRl69epWetlosEHJZbCd7h81Z2bW1tYCDd+ouPP73sZe7B4BFcEBgzdMa1E/mBxZDQ0OVVypcnZyRGxOiFkaGxyPLGsKpHLDWOROLlsAhUNs9SmznyzO04OiacPRMOXpyrlTB1TdT/ZlzdE2ZIilVVauMSiA62NguS0jIzsgsyD90sbz833/+aWtt1bgeo0Zhvg5Hhoc72tthZpyyUyftrCFWZFRcAVC6RWZOUDmc0V0oKB8HP0xfX192ZhaHASUZmJvKS4qK3r97B/el/f373Tt3uTu7eLi4rl+79v69ezPfo0LVkD9/TlgSD6yRUBmR8osoGTM/sFAqlQP9A2dKy2wsrZAMCAQtDNLSpwrTUhevmwndBVS6zStWFrxSHrXWLG4jZA1DZLRC9cdjNxoHrxRbulHobC6Nfvzo0YWQATMHzfDw8MdRWFy6cN7FEQqahyLHXNSRYwAT5vHZOvb+qqKVanqZyLDwly9eIO917epVmLBKyOXl7t/X0twE0yK8eP7i9MlT58+de1ZbC8WKzvLf0NBQdmYmWPQpBOL+vftQwJo3WMA8wMeOHJEbmwAkglcBbrC1ZUYB6j0qFIzjOSNqX6jSTsBy06h1wEiKHFzz+GxDnyUMvg4VTzh2+AgK9bMcsV/9OhIW169d9XZ3Vy0i44KcwcPre0bTuWIwRO4uLg/u30c+QUdHx5KYWAIGS8LhN2VkvK572fNtjFFVqVQODQ62v3//5PHjmzduXLl8+eyZM+fPnau4cuXmjRtwwtLXr1+BOgKuPDw8dKTwMCgJi9fCJC5NeNMIlT8F/+YTFkqlsru7++CBXBOZEVJmgJ4zeNqGo8kB44xOk2xHwX5V6BCk4xkLlWEKSTUOSzOJSDeNWqeI2aACSpZRYBJLbIDXwuzfu3cxlwwwiKChgsV7eBF5cPdOoK+vChYUXaex2HcYFmZLMg18lzKEemBwFMYmVysrwaWUSuXI8EjWaCHSpMREOBceJJ709/c/efx4+9atwQGBtlbWhnpSIZenK5bYWFoG+fuvWplyuLDw8b//fv36FfWqDA0NXausRBIe2Vnb3Lp5E3nreYYFbMw4lJ9vbioH+yvQcxqLr++hDq0zi8vU9V4CJn6GDYFDoMgpROIWqeMVK/VdahCQJAtJ0fddylTBImPDxs5Pn5DdW+Q2Eha1Tx6HB4dAsICi0oNGhUSWInajaSRU2VXbNYLG1wWDI+TyykpLUQ989PAR+LUO8vO/euUKxKkyrN6MfP/+/cK58xvXr1+3Zs2Gtesy1m/IysjYtmVLbk7OieLiy5cu3b1798WLF1+6ulCZQoODAy+e1Qb5+YGNNJfJKikuRn5t/mGhVCp7vn0rOnbM2tISqYFC+Zk0ttRNHYhrHp8NJYxMJyem/YLAPkBg5w+Pb9KyZc1N0yTGoMZ9fg+Hh4Y+tqulRf2LF7FRUQQMVsUX5WMSucYkIt0oNFXff5m2ezSciEsTqOkWIRUETygsKEDJ/OtV1bAXw87KqvRkScfHD4MDA7/4zD97e1uam5MSE2mksSKo+/fuQwraBYEFTAh8+tQpRzt7KuLeKOVL6jdfnEl+NIEeHoMNCw559uzZL47ar/x8CAGLhvq65QkJkHULh+cY22q7R0lcI1AJMlD5IKzaroPXwuzYtu2binoLPAOo9Kwrlhw6eBCibOvTYOgE359J49u3ry1Nb3Zs2YL0gaNuvVCwUCqVfX19F86ft7O2ARqoSpyqk3zUBK4zq347rcyAmfNcnZzv37s3k6FZoO8MDQ19GJUWDfV1q1NT2XQGAYtjSs00doGhY4zco65OXdXW1oZ8tu89PcsTEgkYLJ1M3rV9+7u3zb2awimQP5m23fW5s6nh9fGjRywVZmAJy87M6voM1UuG/y0gLKBd68DAlk2bQM47MiUQYlibP15fVRIpSWFierXy6mjXfsP/Q0ODSFhkrt8g5PLwGBxTT6ERFsjAbojrPzKqvg7NWrQ2PR3W0rIzNsLJSKBjPT09Da9f37t773p1dXVVVdXVa1XXrt25fbumpqapqamzs3NiphBkWfnwofFV/fkzZU52dgAW69eu/Yhg51xYWEw0tYIEYhUs5msR8YfHV8wXnC07A0Zt8RtDg4Mf3qt1i4b6ulFBjWVMAgu4XAGYGy93j0cPH6EeOzszE3ZhpKem1j55/LW7G/5Cb2/vg/v3d2zbHh0R6ePp5eHq5uLo5Gzv4OftnRAfn7kx41BeXsWVKy+ev+j6DPFNw7/q+/nz/bt3DfV1l8vLXR3HWPPS09Lev38Pbr3gsCi/cMECIazEEN2AuoKy1DdhvphxWDKo2hSVSDp25AhSowb9XJzG4HhY5OzdK1Nl1jD05BqlhaosyJiX0dLMvLqqGvWoO7Zvhz2Ry+LjH9y98+Wz2mHW3d1959btUydPnSguLjp69Ehh4aG8/IMHDuzft2/Prt07t2/ftmXLnt27L5w/39TUBKKwur98aX7T2FBfd62iwtPVFSAyc+PGToRnZMFhgYoIEpm7gCI0ULbIrCNxxuLlkQPNNrEn06Hx3bt7T2+vBv5D1Fgv0KEKFm2gYMDh/HyFKriBoWvKt/NDPjDcRpahg2ISxJLz586hni1nn7okVGQolLrY2fFxaJQcAfXNaQ8hjfhDO1yx4GZ1lY+H2jNCIRAP5eUjXSoLDouHDx64u4yhUih3kEeugTfx87JBVY+vwpnMhFJkN65f39HRMe0ALdAXULA4ceyYlZk5XgvD0DFBhiUDfHDMXCgsPnhl6WTK8WNFKOtT4SE15aGfl/eVixfb3rV87e7+8f17748fvT9+/Ozt7fv5s6+vr7+vr7+/f2Cgf3BgYHBwcGhoaHhoaHh4eET1D+7vj+/f371thlFbefmSu7MLfGsdsRgFxwWHxbPaZ37ePqDnfCMb0/C0UVjEgwH6xYaK3R2illqekNj0pmmBZn3ay6JgUXbqpL3KWwaVjdHEygseG4zP/n37+kZjbYaHhvr6+o4UFhqq6tM6OzicKyttfFUPlbF509jS1PSuubn17du2dy3vW1vboWCA9x0f2j99/NDZ0fH506euzs4vXZ+7v3z52t397evXnm/fPra3v2l4DcOiIC9PbmQM39fZ3uHunTvI3i04LF6/fh0cEAi6zTOwUDM+Q+Gc8wYLOG8dr4UJCQyqrVEXCkf2c3HagwMDH9rGFpGL58452ztAmYliA56110ToI0vcwkOUuXHjp46OgYGBH9+/f/n8ub21Ne9AjpE+lPprIVeUHC8CK9RsG42v6uHlo6G+7tXLF2tWrQI7xJgo9A5owWHR9OYNMkqMoyeHS+iqaHHmDRZ8Wz/YYjgR+IsDCPguKFhcvXLZQ7WA0oRSzdRYqrxq8M5AXqv4pc9razs+fHjb9AaeRfBaG+jqHT50aLZo0Pj9R/fvhQQEwMZvIhaXnZHZ+WlcJM6Cw6Ll7dvw0FDQc5CMOjefyMQXDpxRWbTwhnrSSxcvLiYUkPdCLSK3rlf7enpCicV8XSjrSZOlnyaUIoNxVMXPypFzCexOAg43d98+5Edza9e/eF6QdxDWhfFaGF2xpOz0aVRAwoLDorW1NTIsHMCCJdKX+SWYx2fLo+eZWw0u9segUItGK7sgJ2xx2igr58O7dwP9/PBaGKiG5SScmzCawfhYW1icOnECOd+nS07YWkFVSGkkctrKleXnzp4rKy2DNqYnThQVFR05crSgoDAvLz83N+9AzsGcnIM5+w/u31+Yn196sqSqouLfhw/qXzxHXrDy0iV/bx84XZSAwS6FCuO+Ro3PgsOi/X17dEQk6DaDr23os2Qhah2yRhn/d+3YORmVNarz8344PDzmKmuor3v67z9hqjBrKkfEUWiumQ6XfQfjY6A3tlLUPX927/atPTt3KIzVuqGxgYGzvYOdlbWlwsxUZmSoJ9UVS0Q8PpfJYlCoNBKZSiRRCEQGhSrT1w8NDNy2efOVi+XPa54CWNy/c3v50qVAq5AIRSXFJ4BVAwzIgsOis7NzSUws6DaNydNzDTWLy1AVXp/PagGAYyp1ZUrru1bQw8VsjIyMdHxQB+011NfVPX8WHQ5JSgpLMFlpU4aemkUPHiIuk7Vx3doLZ88WHzu6d+fOZUuXWpmbM6lq5hMwjBMbDApVT6JtqTBzd3aJCA1NX7UqZ++ec2Wlj+7fg6XFs6dPKy5dSk9NlWprwz8nYLCxUdETze1zSU2e7Sj39vauSEoG3jIigcTRM9VzCdX1iEK5EzUuvTM/yRk1XYQGBT+r/W2bkY6PH8Cr2VBfFx8TS8TiyAwux9RBY1+Y+uYkFWc5PFUkHN5CrnCyt9fX0UWFTE+EAnyGQaFayOVLoqN3bNly6kTxnZs34Xp6DfV1r+tePq95+s+D+xUXL+7ZsdPXy4vLGuNk1haKio8f15hltODSQqlUbsrKRvI3Qm8PlckUG7Bl1qj0c40DN8OToOz4xFij2UL5V77/qeMj2Ac21NclJSZSiSQyjc02sdfYEZahNYmiLsU+ceJpJLK2SGQul9vb2Do7OLq5uHi5e/h5e/t6eUu1deCtBJ/NiQwNPZiTc7rkxNnS0xfOnDlberqkqOhwfn7Onj2bs7LSVq708fBAspJAtaGYrFUpqY2NjRo7uxiwKDh0SE+iFlzInhOJVJpAlyWzmhdw8Gx8qTyIE3OizU5jzxfoZOenDiQs0lauZNHoZCqTbWSrERZg7UOODJVElkn1fb28ViYn5+zbV37hwu1btx49fFhTU1NfV9f0pqmxsXHbli06YnUoKAmHF/MFCmMTGwtLR1s7GwsLmVTKZ7MnBsjBdxFwuYlLlz6rfYayqIIxWQxYXL54ycrcAtltZJtIotIEeqz5kBx0kT4Bi6MSSYcLCufsOABDM7fG50+f3rx+BdaR9WvW8NhsMoXONrIZg4WtL8SJYO7GkTsxdE1R0oLLZIUEBRUdPdbY2Ij0U6Ce5+3bt6krVvLZHBB7hxxVjW0KkSTmCxxt7bIyMupevpzCp7gYsGhsaEiMXwoi0DU+MZFEown1WDIbrqWHRvfB2Jhq2v3Dn0JRLSrGqi2bNk1B9YIa3/k9hINcACzgSslkMpUlVUAp8yb2LJk1U6qgS2RUnjaZwZtIaAEtgjfGBdxO9oSPHz/enL0pLiYmNDjY18vb1cnZ1tJKbmyir6sn4guEPL6uWCKT6itMTO1tbAN8fZMSl+3etevu3btw+cXJLrsYKid87zu3b8dFx2gLRRojwgFQSGQaTajPMpojOGCuC8gzkrisuen3eEa+dH1uamwAsNi1fbtUW4eII1AYXApLQKIwCXgS0n4F+g4aEWFhL54/n2LOUB8N9A98/vz5TWPj438fV1dVnykrO1xQsGvnzp3bt+fmHCg6duzcmbO3b99+19IycSOKuhQ4XAxpAdf1e1Vfv2fXbn8fX0M9KTK4FAzHaANLItNpIn2Wke1sJQcoH+Tv4/vk8WPQycVsdH/pakbAInf/PiN9KFlhJn90MsXMVH7syFEQa7OYT4681yLBAr7lwMDAq/r6Y0eOLFua4GBrK+DywMYVPWoYLImiAoehFUfhzLP2nskiwpE7khkQsbKFwqy6qgrZz0Vrf+3ufquKc4EFxpGCQ2YmpujeTUAJhUA0M5UvT0w8d/YsMhxm0R4bdaNFhQW499fu7ju3b2/dvNnP20dHJJ5MYYaIcIlkClvI0DFhGdtyzd14NhNL0Y8F5gA/tYDLKzuNzrkAd1/QxrevX982vQGLyMnjx60t1Oo2jUQW8fgyqb6FXGFtboHcMWqLxHm5B3+XPjRxQH4PLODnGBoaqntZl7NvX3BAoL6OLiqpZNwbhsGRyHQqX4cpNWObOky2uMD831DGDg6fm3NAo6Fm4hDM75meb99ampoALM6VlTqq6KoMdPXCg0M2rF17YN++k8XFZadOeY8GR0HJx3JF1bVr8/skv3K13wkL+LmHh4cbGxsL8g9FhIXJ9A2QjJ/jkKESvAQcgUzn0IT6TKkZy8gW5mOEOPBs1VJE5ZCE2JDTV69ub2//laGZ22+/9/S8ax6DRcWli27OzngtTGxU1O2bNwBcXr18AWeRwH2cuvzk3J7kV371+2EBP/3IyMi7lpbjRUWx0dGmRsbT230xOCKRSmbyaAJdusSIoSeHiA1l1lSuGE7ICQoI0Ej/8yuDNZPfIgPjGurrblRVwVIhJjLy1vXrABYN9XWbs7IkAnWxQkc7+zu3b8/k+ovznT8FFqC37e3tpadPJ8YvNZcrGFSIZ3+mfxgcAU9U0eNBXCgTM33BLRa00fvjR2vLWzD99+/cDvCBEpSjwsNvVleB8w31dUht1NXR6d7d35n4hBqTPw4W8PN1fvpUfuHCiuVJ1haWgGF0pvhQIYlFoxcdPQbyI1DdXrjDn729bS0tYPr/eXA/2N8fr4WJCAm9fu0aON9QX3fpwgWYAAOvhbGxtLo5eQ3jhXvaya78h8ICftzu7u5rV6+uS1/j7+NjIVfwOZyprWEo3GzOzv7SNZZAN9kQzO95kJ8DI+DJP49CA4PwWpjQoODqq5VIWDy8pw7SgQrMCgRny8rm90l+5Wp/NCzgjg0MDDQ3NV0sL9+yaXN0RKSTvYNUR4dOpkzrC4iNjn5VX/8rozOH3w7097e3tYLpr33yOCIEojMIDgi8VlkBzquiMZ4vjY2DN+ckHP5gbu7MrZBzeLBZ/eS/ABbI/nR1dT24f78gPz8tNTU6MjIoIMDL3cNNxSLl5e7h4ugk4o+lXdjb2N6+dQv580VoQ3F7iHzDl89qo1SROEF+flevXEbCoqG+LmP9emC9WL92HTILdBEedYpb/JfBAvRkZGSkt7f3Q3t7fV1dzdOnz2uf1dfV/fPoUVhwCLCoxLfzAAAHz0lEQVScinj80tOnJ/Mdg0vNb0MVoDUWifPq5YvYSChm0d/Hp+LSJRQs8g4cgNn4VDppxMuXL+f3YeZ8tf9WWGjs8PDw8NYtWzhMiJ0OLhW2d/ceFFmYxh/O78nOjnEhF0tiYggYrI+H5+XycSHdDfV1Z0tLHWzU3Oy/RbZN1vG/ChZKpfLCufMWcgXQPVckJbe81UyCP9mI/Pr5rs5OkLzVUF+XuGQJGU9wd3G5cO4sSlrcun7dx9MLfloxX3CmtHSRZdtknf3bYPH61asg/wAAi6mLqUw2KL94HuVETVbF7TnY2p05fQoFi9onjyNDw0Aaz/59+35jXjWy138bLH7+/LkmbTWwoBv8jmwilLcsdcUKJpVmaWZ+srgYBYuG+roVy5fTRis5rEpJaW39PTHrSEwsXhgO6q4Lenj08BF9XTWxIZVIKsgfl6K/oLeGL65yi6gTwxvq69amreYyWaYyo6IjRybCAtqMjJajDvTzf/rk6SI84bS3+NukhVKpfHB/HHXCmrTV7Qiel2lH5Ne/gLJ/Z65fL+Ry9XV0D+fnT4TF5qxs4Bmxt7G9dXOxd9Qa+/sXwqKzszMxfimwh2pkHtI4FvN1sr+v730rREQE/23JztIWCsUCYd6BHHASNHZs3QrC4q3NLa5Xo9lw5uupZnWdvxAWIyMju3fuAmYibaHoTFnZFFHOsxqvmXwZZdHatW2bnrY2l8nav2cPQANo7N21y0BPveRZ/r6gMlS//kJYKJXKiitXbCyhdF7YerF96zaNpZdQYzFfhyMjI58+jiUR5ezZI5NC4au7t28HaHj98uWTR48qLl1amZQEFhFzufwPCcb5O2HR3NQUHjLGnhAVHvHyxaIaEJFpAfm5B0xlMiIWtyYt7VrFlfJz506XnDiUe3B9+hpfLy+JQAjMso52dn9I1MXfCYuB/oGN69aD0ktyI+PKior5EgYzuc43KNBXHdF5tLDAzBSK8rW2sAzy83dxcJQbm/BYbIAGWKpRCMS0lNSWlpaZXH+hv/N3wkKpVJ48UWKsKv4DM0PkH8xbzNDOH9+/t46Sl506ccLW0hJY2DQ2SDi8raXVtatXF1MHmgJbfy0snj977uczRuW2Mjl5MV9E5GYEhHNqBAReC8Nnc7w9PE+fPNW16NEhkyHjr4VFb2/v2vR0EBPq7IAmk5tsROblPHIzAgqLIGHBoFD1dXUdbG1DAgM3ZWY9efxkIhHzvDzJ3C7y18JCqVSeKjlpIjOCJ4PP4ZacOLFoMXyqzQhErd1QX/fyWW1MZCTQJHgstruL6+pVqwoLCu7cvv3hw4fflUU9BWL+ZljU19Uh3WYaKztOMTRz/mh4eLi/r+/D+/eA0SAlKRnov9aWllcrK/9AKCD7+zfDoq+vb+P69YBxJch/wVMEhoeH+/r6vnZ/aW9rbRolRm2or8vOyBCPho1ZW1jcuH4dOQd/YPtvhoVSqTxbdkYxmgJqoCe9WF6+QAENECB+/uz+8uV9Wysy2AK2Xx0Y5YTHa2FMZLKKK1f+QCggH+kvhwVcUhwOaCDjCSuTkqurqmpralpbW3/8+PHrEBkZGRkcHPzZ2wsBorX1zWs1dTKwZsKUuYfz80GCsq5YcuHceeQc/IHtvxwWAwMD2ZmZINOERiLL9PX9fXzT09IO5eVdunjx4YMHDQ0NXZ8/o/hKp5mqkZGhwcG+nz97vn7t7OhobXmLZMB5Xffy2dMnd2/dvFx+oeR4Ue6+fQlxcaACFI/FLj11aprr/+6P/3JYKJXK8vPjCpqAXSIBixVweQ62dktiY7dv3Xbq5Mnr1dWPHjysrampr69vbmpuf//+8+fP379/HxwYgOXKCEDDt2+dHR1vm968fFZb8/jffx8+fHjv7p2bNyovXzpdUnIoN3dTZkZCXJynq6tMXx8om/CtBRzu78qmnznY/n5YNDc3R4wGxgFMTGzQyRRDqb6Tnb2ft090RETysuXr16zdvnXrwQMHiouKzp45c+nixSuXLp87e7a4qOjQwdz9u3fv3LZ1c1bWxnXr1qxalZKUtDQ21s/LW2FswmEwp8hh8XB1e/jgwcxn6Ld88++HxdDQ0NbNmznMMT7KiZiY9gyFQOQyWSIen8/mMKk0Mp4wxcRPdjUCBivV0T1SeBhVvvC3TPzUN/37YaFUKq9XV4eHhOrr6jKptDlM52TTPKvzVCLJQmG2f+/e9+NrF049Pb/r0/8JWPR8+/bwwYPCgoI1q1eHh4S6ODqZGMq4LDaI4JrVBM/qyyQcns/mWJlbxMfGlZ+/8Ofw3UwNuP8JWIAhGB4e7uzs/OfRPydLSrIzs+JiYrzc3W0srRTGJjKpvo5YIuDyWHQ6hUCcuVAhYLAUApFFowu5PD2JtrGBoblcYWdt4+rk7OftsyQ2dnP2psqKis7Ozl/fD4OOLHTjfwsWqNHs6empe/myuqrq7JkzRUeP5ebkbN+6dcO6dSuTkpfExkaEhQX5B/iqmJT9vH0CfP0C/fyDAwJCAoNCg4LDQ0IjQsOiwiPiomOSly9fv3bdjm3b8nIPlhQXXywvv3njxuN/H79tnodqtqhnXpzD/2lYTDHEQ0NDPd++tbe3N71586axsbm5+V3LuzaoHlh7R0fH589QDbBv3779+PFjdgaPKW75J330/2HxJ83GH/Ms/w9wM0m5o0q84gAAAABJRU5ErkJggg==;" parent="1" vertex="1">
          <mxGeometry x="390" y="48" width="86.81" height="119" as="geometry" />
        </mxCell>
        <mxCell id="LaAjLJHp3v9Z2FKLQKzg-5" style="edgeStyle=orthogonalEdgeStyle;rounded=0;orthogonalLoop=1;jettySize=auto;html=1;exitX=0.5;exitY=1;exitDx=0;exitDy=0;exitPerimeter=0;strokeWidth=3;strokeColor=#808080;" edge="1" parent="1" source="6SbLtYSVwNf5yXNBwJdg-9" target="6SbLtYSVwNf5yXNBwJdg-14">
          <mxGeometry relative="1" as="geometry" />
        </mxCell>
        <mxCell id="6SbLtYSVwNf5yXNBwJdg-9" value="CloudFormation" style="outlineConnect=0;dashed=0;verticalLabelPosition=bottom;verticalAlign=top;align=center;html=1;shape=mxgraph.aws3.cloudformation;fillColor=#759C3E;gradientColor=none;" parent="1" vertex="1">
          <mxGeometry x="697.69" y="220" width="70" height="87" as="geometry" />
        </mxCell>
        <mxCell id="LaAjLJHp3v9Z2FKLQKzg-1" style="edgeStyle=orthogonalEdgeStyle;rounded=0;orthogonalLoop=1;jettySize=auto;html=1;strokeWidth=3;fillColor=#f5f5f5;strokeColor=#808080;" edge="1" parent="1" source="6SbLtYSVwNf5yXNBwJdg-10" target="6SbLtYSVwNf5yXNBwJdg-1">
          <mxGeometry relative="1" as="geometry" />
        </mxCell>
        <mxCell id="6SbLtYSVwNf5yXNBwJdg-10" value="Developers" style="outlineConnect=0;dashed=0;verticalLabelPosition=bottom;verticalAlign=top;align=center;html=1;shape=mxgraph.aws3.users;fillColor=#D2D3D3;gradientColor=none;" parent="1" vertex="1">
          <mxGeometry x="89" y="330" width="66" height="63" as="geometry" />
        </mxCell>
        <mxCell id="LaAjLJHp3v9Z2FKLQKzg-4" style="edgeStyle=orthogonalEdgeStyle;rounded=0;orthogonalLoop=1;jettySize=auto;html=1;entryX=0.5;entryY=0;entryDx=0;entryDy=0;entryPerimeter=0;strokeWidth=3;strokeColor=#808080;" edge="1" parent="1" source="6SbLtYSVwNf5yXNBwJdg-13" target="6SbLtYSVwNf5yXNBwJdg-9">
          <mxGeometry relative="1" as="geometry" />
        </mxCell>
        <mxCell id="6SbLtYSVwNf5yXNBwJdg-13" value="S3 Bucket" style="sketch=0;outlineConnect=0;fontColor=#232F3E;gradientColor=none;fillColor=#3F8624;strokeColor=none;dashed=0;verticalLabelPosition=bottom;verticalAlign=top;align=center;html=1;fontSize=12;fontStyle=0;aspect=fixed;pointerEvents=1;shape=mxgraph.aws4.bucket;" parent="1" vertex="1">
          <mxGeometry x="700" y="56" width="65.38" height="68" as="geometry" />
        </mxCell>
        <mxCell id="6SbLtYSVwNf5yXNBwJdg-14" value="Lambda" style="outlineConnect=0;dashed=0;verticalLabelPosition=bottom;verticalAlign=top;align=center;html=1;shape=mxgraph.aws3.lambda_function;fillColor=#F58534;gradientColor=none;" parent="1" vertex="1">
          <mxGeometry x="698.19" y="420" width="69" height="72" as="geometry" />
        </mxCell>
        <mxCell id="LaAjLJHp3v9Z2FKLQKzg-6" value="AWS Cloud" style="points=[[0,0],[0.25,0],[0.5,0],[0.75,0],[1,0],[1,0.25],[1,0.5],[1,0.75],[1,1],[0.75,1],[0.5,1],[0.25,1],[0,1],[0,0.75],[0,0.5],[0,0.25]];outlineConnect=0;gradientColor=none;html=1;whiteSpace=wrap;fontSize=12;fontStyle=0;container=1;pointerEvents=0;collapsible=0;recursiveResize=0;shape=mxgraph.aws4.group;grIcon=mxgraph.aws4.group_aws_cloud_alt;strokeColor=#232F3E;fillColor=none;verticalAlign=top;align=left;spacingLeft=30;fontColor=#232F3E;dashed=0;" vertex="1" parent="1">
          <mxGeometry x="560" y="20" width="320" height="520" as="geometry" />
        </mxCell>
      </root>
    </mxGraphModel>
  </diagram>
</mxfile>
